<svg version="1.0" xmlns="http://www.w3.org/2000/svg" width="1109.333" height="465.333" viewBox="0 0 832 349"><path d="M527 10.3c0 2.3 2.1 7.7 3 7.7.4 0 1.5-2 2.3-4.5.9-2.5 1.2-4.5.7-4.5s-1.2 1.1-1.6 2.5c-.7 3-2.4 3.3-2.4.6 0-1.1-.4-2.3-1-2.6-.5-.3-1 0-1 .8zM541.1 13.2c-.1 2.8.4 4.8 1 4.8.5 0 .8-.4.5-.9-.8-1.2.3-4.1 1.5-4.1.5 0 .9 1.1.9 2.5s.5 2.5 1.1 2.5c.7 0 .9-.9.5-2.3-.3-1.2-.6-2.8-.6-3.5 0-.6-.9-1.2-1.9-1.2-1.1 0-2.2-.6-2.4-1.3-.3-.6-.6.9-.6 3.5zM548 13.5c0 2.5.5 4.5 1 4.5.7 0 1-1.9.9-4.5-.2-2.5-.6-4.5-1.1-4.5-.4 0-.8 2-.8 4.5zM558 13.5c0 2.5.5 4.5 1 4.5.6 0 1-2 1-4.5s-.4-4.5-1-4.5c-.5 0-1 2-1 4.5zM568 13.5c0 2.5.5 4.5 1 4.5.6 0 1-.9 1-2s.7-2 1.5-2 1.5.9 1.5 2 .5 2 1 2c.6 0 1-2 1-4.5s-.4-4.5-1-4.5c-.5 0-1 .7-1 1.5s-.7 1.5-1.5 1.5-1.5-.7-1.5-1.5-.4-1.5-1-1.5c-.5 0-1 2-1 4.5zM595 10.4c0 .8-.8 1.3-1.7 1.2-1.3-.1-1.9.8-2.1 3.1-.3 3.1-.1 3.3 2.7 3.3 3 0 3.1-.1 3.1-4.5 0-2.5-.4-4.5-1-4.5-.5 0-1 .6-1 1.4zm-.5 4.4c0 1.8-2 1.5-2.3-.4-.3-1 .1-1.5 1-1.2.7.3 1.3 1 1.3 1.6zM598 13.5c0 2.5.5 4.5 1 4.5.6 0 1-2 1-4.5s-.4-4.5-1-4.5c-.5 0-1 2-1 4.5zM534.4 12.4c-1 2.6.1 5.1 2.4 5.4 1.2.2 2.2-.2 2.2-.8 0-.7-.7-1-1.5-.7-.8.4-1.7.2-2-.3-.4-.6.5-1 2-1 2.3 0 2.4-.2 1.5-2-1.2-2.3-3.8-2.6-4.6-.6zM552 12.5c-1.8 2.1-.3 5.7 2.3 5.3 1.1-.2 2.3-1 2.5-1.8.4-1.2.3-1.3-1-.3-1.6 1.4-2.8.8-2.8-1.4 0-1 .6-1.2 2-.8 2.4.7 2.7-1 .4-1.9-2.1-.8-2-.8-3.4.9zM561.4 13.4c-.3 1.4-.3 3 .1 3.5.8 1.5 4.2 1.4 5.1-.1.5-.8.2-.9-.9-.5-.9.3-1.9.2-2.2-.3-.4-.6.3-1 1.5-1 2.9 0 2.3-3.4-.7-3.8-1.7-.3-2.4.3-2.9 2.2zM577.5 11.9c-.3.6.2 1.1 1.2 1.2 1.4 0 1.5.2.3.6-3.7 1.4-3.3 4.3.6 4.3 2.2 0 2.5-.4 2.2-3.2-.3-3.3-2.9-5-4.3-2.9zM580 16c0 .5-.4 1-1 1-.5 0-1-.5-1-1 0-.6.5-1 1-1 .6 0 1 .4 1 1zM584.1 14.9c.2 3.1.3 3.2.6.8.5-3.3 2.4-3.1 3.5.4.5 1.9.6 1.7.5-1.1-.2-2.9-.6-3.5-2.4-3.6-2-.1-2.3.3-2.2 3.5zM601.4 13.4c-.3 1.4-.3 3 .1 3.5.8 1.5 4.2 1.4 5.1-.1.5-.8.2-.9-.9-.5-.9.3-1.9.2-2.2-.3-.4-.6.4-1 1.5-1 1.6 0 2-.4 1.6-1.6-.3-.9-.6-1.8-.6-2 0-.2-.9-.4-2-.4-1.2 0-2.2.9-2.6 2.4zM608 14.7c0 1.8.5 3.3 1 3.3.6 0 1-1.1 1-2.5s.5-2.5 1-2.5c.6 0 1-.4 1-.9 0-.6-.9-.9-2-.8-1.6.1-2 .8-2 3.4zM529.8 30.7c22.2.2 58.2.2 80 0 21.8-.1 3.7-.2-40.3-.2s-61.9.1-39.7.2zM191 31.8c0 .4-1 1.2-2.2 1.7-1.4.7-2.2 2-2.3 3.7-.1 3.6 1.3 3.6 1.7.1.5-4 2.8-4.2 2.8-.2 0 4.4.7 3.4 1.3-1.9.2-2.3 0-4.2-.4-4.2-.5 0-.9.3-.9.8zM176.9 32.5c-.7.6.2 7.5 1 7.5.3 0 .6-1.6.5-3.5-.1-3.5-.6-4.9-1.5-4zM167.3 36.5c0 2.2.2 3 .4 1.7.2-1.2.2-3 0-4-.3-.9-.5.1-.4 2.3zM170.1 36.9c.1 3.6.1 3.6.8.6.3-1.7 1.1-3 1.6-3s1.3 1.3 1.7 3c.6 2.9.6 2.9.5-.5-.2-2.9-.6-3.5-2.4-3.6-2-.1-2.3.3-2.2 3.5zM180.7 33.6c-.4.4-.7 1.8-.7 3.1 0 2.6 2.6 4.1 4.2 2.5.8-.8.5-.9-1.1-.5-1.2.3-2.1.1-2.1-.6 0-.6.9-1.1 2.1-1.1 1.4 0 1.9-.5 1.7-1.7-.3-1.9-2.9-2.9-4.1-1.7zM184 35c0 .5-.7 1-1.6 1-.8 0-1.2-.5-.9-1 .3-.6 1-1 1.6-1 .5 0 .9.4.9 1zM194.5 34.1c-.5.8-.1.9 1.4.4 1.1-.3 2.1-.2 2.1.3s-.9 1.2-2 1.5c-3.2.8-2.5 3.7.9 3.7 2.7 0 2.8-.2 2.2-3.2-.7-3.3-3.3-4.9-4.6-2.7zm3 3.9c-.3.5-1 1-1.6 1-.5 0-.9-.5-.9-1 0-.6.7-1 1.6-1 .8 0 1.2.4.9 1zM200.5 34.9c-1.1 3.5 2.2 7.1 3.9 4.2.3-.5-.2-.8-1.2-.7-1.1.1-1.7-.6-1.7-1.9 0-1.3.6-2 1.7-1.9 1 .1 1.5-.2 1.2-.7-.9-1.6-3.2-1-3.9 1zM207 34.5c-.6.8-.9 2.3-.5 3.5.7 2.1 3.9 2.7 5.1.9.4-.7 0-.9-1.4-.5-1.1.4-2.3.2-2.7-.4-.4-.6.5-1 2-1 2.1 0 2.6-.4 2.1-1.6-.3-.9-.6-1.8-.6-2 0-1-2.9-.3-4 1.1zm3.5.5c.3.5-.3 1-1.5 1s-1.8-.5-1.5-1c.3-.6 1-1 1.5-1s1.2.4 1.5 1zM161 36.5c0 .8.8 1.3 1.8 1.2 1 0 1.9-.6 1.9-1.2s-.9-1.2-1.9-1.2c-1-.1-1.8.4-1.8 1.2zM214 36.6c0 .8.5 1.2 1 .9.6-.4.8-1.1.5-1.6-.9-1.4-1.5-1.1-1.5.7zM216.3 36.5c0 .8.4 1.5.9 1.5.4 0 .8-.7.8-1.5s-.4-1.5-.8-1.5c-.5 0-.9.7-.9 1.5zM273 41.7l-3.5 1.5 3.5 1.9c4.3 2.2 5.1 2.3 4.4.4-.5-1.3 11.8-1.5 105.7-1.8l106.4-.2-106.4-.3c-94-.2-106.2-.4-105.7-1.7.7-1.8.1-1.8-4.4.2zM540.7 47.5c.8 2.5 1.8 4.5 2.2 4.5 1 0 3.6-7.8 2.9-8.6-.3-.3-1.1 1-1.8 2.8l-1.3 3.3-1-3.3c-.5-1.7-1.3-3.2-1.8-3.2-.4 0-.1 2 .8 4.5zM553.2 47.5c0 2.5.4 4.5.9 4.5s.9-1.1.9-2.4c0-1.4.5-2.8 1-3.1 1-.6 1.4.6 1.1 3.7-.1 1 .3 1.8.8 1.8.6 0 1.1-1.4 1.1-3.1 0-2.2-.5-3.2-2-3.6-1.1-.3-2-.9-2-1.4 0-.5-.4-.9-.9-.9s-.9 2-.9 4.5zM569.3 47.5c0 2.7.2 3.8.4 2.2.2-1.5.2-3.7 0-5-.2-1.2-.4 0-.4 2.8zM579 44.9c-1.3 2.5-1.3 5.2 0 7.1.8 1.1.9.9.5-1-.3-1.4-.1-3.8.4-5.3 1.2-3.1.7-3.6-.9-.8zM582.5 48.5c0 2.9.3 5.1.8 4.8.9-.5.9-7.4-.1-9-.4-.6-.7 1.3-.7 4.2zM590.7 47.5c.8 2.5 1.8 4.5 2.2 4.5.3 0 1.3-2 2.2-4.5.9-2.5 1.3-4.5.9-4.5-.5 0-1.3 1.5-2 3.2l-1.2 3.3-1.4-3.3c-2.1-4.7-2.5-3.9-.7 1.3zM603.4 47.5c0 2.5.4 4.5.8 4.5s.8-1.1.8-2.4c0-2.9 1.9-4.6 2.1-1.9.1 1 .1 2.4 0 3-.1.7.3 1.3.9 1.3.5 0 1-1.4 1-3.1 0-2.2-.5-3.2-2-3.6-1.1-.3-2-.9-2-1.4 0-.5-.4-.9-.9-.9-.4 0-.8 2-.7 4.5zM619.3 47.5c0 2.7.2 3.8.4 2.2.2-1.5.2-3.7 0-5-.2-1.2-.4 0-.4 2.8zM529.7 44.7c-.6 1.1.4 7.3 1.2 7.3.7 0 .6-6.8-.2-7.6-.3-.3-.7-.2-1 .3zM169.6 47.2c2.4 7.9 3.6 8.7 5.4 3.3 1.5-4.7.6-7-1.1-2.5l-1.3 3.5-.8-3.3c-.5-1.7-1.3-3.2-1.9-3.2-.6 0-.8.9-.3 2.2zM183.9 46.5c0 1.1-.2 3-.3 4.3-.2 1.3.1 2.5.6 2.8.4.3.8-.6.8-2 0-3.5 2.7-3.4 3.3.1.4 2.6.4 2.5.6-.5.1-2.3-.4-3.5-1.6-3.9-1-.4-2.1-1.1-2.5-1.7-.5-.7-.8-.3-.9.9zM191 49.5c0 2.5.5 4.5 1 4.5.7 0 1-1.9.9-4.5-.2-2.5-.6-4.5-1.1-4.5-.4 0-.8 2-.8 4.5zM201 49.5c0 2.5.5 4.5 1 4.5.6 0 1-2 1-4.5s-.4-4.5-1-4.5c-.5 0-1 2-1 4.5zM498.1 46.2c0 1-.7 1.8-1.3 1.8-.9 0-1 .3-.2.8.6.4 1.4 1.4 1.7 2.2.4 1.2.6 1.2.6-.2.1-.9.9-1.9 1.9-2.1 1.5-.4 1.5-.5 0-.6-.9 0-1.9-.9-2.1-1.9-.4-1.6-.5-1.6-.6 0zM506.7 45.7c-.4.3-.7 1.7-.7 3 0 2.7 2.6 4.1 4.3 2.3 1-1 .7-1.1-1.1-.5-2.1.6-2.3.4-2-1.7.2-1.6.9-2.2 2.2-2 1.1.2 1.5-.1 1.1-.7-.7-1.2-2.8-1.4-3.8-.4zM512.1 48.9c.2 3 .3 3.2.6.8.2-1.5.9-2.7 1.4-2.7.5 0 .9-.4.9-.8 0-.5-.7-.9-1.5-.9-1.1 0-1.5 1-1.4 3.6zM516.7 45.6c-.4.4-.7 1.8-.7 3.1 0 2.7 2.6 4.1 4.3 2.4.9-.9.8-1.1-.4-.6-1 .4-2 .2-2.4-.4-.3-.7.3-1.1 1.5-1.1 1.5 0 2-.5 1.8-1.7-.3-1.9-2.9-2.9-4.1-1.7zm2.8 1.4c.3.5-.1 1-1 1s-1.3-.5-1-1c.3-.6.8-1 1-1 .2 0 .7.4 1 1zM523.5 45.9c-.3.7 0 .8.9.5.9-.3 1.6-.1 1.6.5s-.7 1.1-1.5 1.1-1.5.9-1.5 2c0 1.5.7 2 2.6 2 2.3 0 2.5-.3 2.2-3.2-.3-3.3-2.9-5-4.3-2.9zm3 4.1c-.3.5-1 1-1.6 1-.5 0-.9-.5-.9-1 0-.6.7-1 1.6-1 .8 0 1.2.4.9 1zM533.1 46.4c-.7.8-1 2.4-.6 3.6.7 2.1 3.9 2.7 5.1.9.4-.8 0-.9-1.5-.4-1.2.4-2.1.2-2.1-.4 0-.6.9-1.1 2.1-1.1 1.4 0 1.9-.5 1.7-1.7-.4-2.3-3.1-2.8-4.7-.9zm3.4.6c.3.5-.1 1-1 1s-1.3-.5-1-1c.3-.6.8-1 1-1 .2 0 .7.4 1 1zM547.1 46.9c-.6 1.1-.8 2.7-.5 3.5.7 1.8 3.9 2.1 5 .5.4-.8 0-.9-1.5-.4-1.2.4-2.1.2-2.1-.4 0-.6.9-1.1 2.1-1.1 1.4 0 1.9-.5 1.7-1.7-.5-2.5-3.5-2.8-4.7-.4zm3.4.1c.3.5-.1 1-1 1s-1.3-.5-1-1c.3-.6.8-1 1-1 .2 0 .7.4 1 1zM560.3 48.5c0 2.2.2 3 .4 1.7.2-1.2.2-3 0-4-.3-.9-.5.1-.4 2.3zM563.2 46.3c-1.6 1.9-.3 5.7 1.9 5.7 1.1 0 1.9-.4 1.9-1 0-.5-.7-.7-1.5-.4-1.1.5-1.5-.1-1.5-2.1s.4-2.6 1.5-2.1c.8.3 1.5.1 1.5-.4 0-1.4-2.6-1.2-3.8.3zM572 46.5c-2.6 3.2 1.5 7.5 4.4 4.5.8-.9.6-1.1-1.1-.5-1.4.4-2.3.2-2.3-.4 0-.6.9-1.1 2-1.1 2.4 0 2.7-2.5.4-3.4-2.1-.8-2-.8-3.4.9zm3.5.5c.3.5-.1 1-.9 1-.9 0-1.6-.5-1.6-1 0-.6.4-1 .9-1 .6 0 1.3.4 1.6 1zM597.1 46.9c-.6 1.1-.8 2.7-.5 3.5.7 1.7 3.9 2.2 4.8.7.4-.5-.3-.7-1.4-.4-1.1.3-2 0-2-.6s.9-1.1 2.1-1.1c1.4 0 1.9-.5 1.7-1.7-.5-2.5-3.5-2.8-4.7-.4zm3.4.1c.3.5-.1 1-1 1s-1.3-.5-1-1c.3-.6.8-1 1-1 .2 0 .7.4 1 1zM610 48.5c0 1.9.4 3.5.8 3.5s.6-1.6.4-3.5c-.2-1.9-.6-3.5-.8-3.5-.2 0-.4 1.6-.4 3.5zM613.2 46.3c-1.6 1.9-.3 5.7 1.9 5.7 1.1 0 1.9-.5 1.9-1.1 0-.5-.5-.7-1.1-.3-1.4.8-2.9-1.4-2.2-3.3.3-.8 1.2-1.2 1.9-.9.8.3 1.4.1 1.4-.4 0-1.4-2.6-1.2-3.8.3zM622.1 46.4c-.7.8-1 2.4-.6 3.6.7 2.1 3.9 2.7 5.1.9.4-.8 0-.9-1.5-.4-1.2.4-2.1.2-2.1-.4 0-.6.9-1.1 2.1-1.1 1.4 0 1.9-.5 1.7-1.7-.4-2.3-3.1-2.8-4.7-.9zm3.4.6c.3.5-.1 1-.9 1-.9 0-1.6-.5-1.6-1 0-.6.4-1 .9-1 .6 0 1.3.4 1.6 1zM177.7 47.6c-.4.4-.7 1.8-.7 3.1 0 2.8 2.6 4.1 4.3 2.3 1-1 .8-1.2-.5-.7-1 .4-1.8.2-1.8-.3 0-.6.7-1 1.6-1 .9 0 1.4-.7 1.2-1.7-.3-1.9-2.9-2.9-4.1-1.7zM195.2 47.9c-1.9 1.2-1.1 5.5 1.2 5.9 1 .2 2.3-.2 3-.8.8-1 .6-1.2-1.1-.7-1.8.4-2.3.1-2.3-1.5s.4-1.8 2.2-1.2c2 .6 2.1.5.9-1-1.5-1.8-2-1.9-3.9-.7zM204.4 48.4c-1 2.6.1 5.1 2.4 5.4 1.2.2 2.2-.2 2.2-.8 0-.7-.7-1-1.5-.6-.8.3-1.5.1-1.5-.4 0-.6.9-1 2-1 2.3 0 2.6-1 .8-2.8-1.6-1.6-3.7-1.5-4.4.2zM147.5 72.6c-1.8 4.4-1.8 4.7-.4 3.8.6-.3 1.5 0 2 .7.7 1.2.9 1.2.9 0 0-.7.6-1.1 1.5-.7.8.3 1.5.2 1.5-.3 0-1-3-7.1-3.6-7.1-.2 0-1.1 1.6-1.9 3.6zM187.5 72.6c-1.9 4.6-1.9 4.7.2 3.5 1.1-.6 2.4-.6 3.5 0 1 .5 1.8.6 1.8.1 0-1.1-3-7.2-3.6-7.2-.2 0-1.1 1.6-1.9 3.6zM227.6 72.2c-2.1 4.2-2.1 4.3 1.9 4.3 1.9 0 3.5-.3 3.5-.6 0-.8-3.1-6.9-3.5-6.9-.2 0-1.1 1.4-1.9 3.2zM535.5 70.7c.4 1 1.2 3 1.7 4.5.5 1.6 1.3 2.8 1.7 2.8 1 0 3.4-8 2.7-8.8-.3-.3-.9.9-1.2 2.6-.8 4-2 4.1-2.9.2-.4-1.7-1.1-3-1.7-3-.6 0-.7.8-.3 1.7zM549.4 72c.1 3 1.6 4.4 1.6 1.5 0-.8.4-1.5.9-1.5 1.3 0 2.1 2.7 1.5 4.5-.4.8-.1 1.5.5 1.5 1.2 0 1.5-2.9.5-5.4-.3-.9-1.2-1.6-2-1.6s-1.4-.5-1.4-1c0-.6-.4-1-.9-1s-.8 1.3-.7 3zM565.3 73.5c0 2.7.2 3.8.4 2.2.2-1.5.2-3.7 0-5-.2-1.2-.4 0-.4 2.8zM574.9 71.1c-1.2 2.3-.4 8.9 1.1 8.9.5 0 .4-1.4-.2-3.1-.7-2.2-.7-3.7.1-5.5 1.3-3 .6-3.2-1-.3zM578.5 74.5c0 2.9.3 5.1.8 4.8.9-.5.9-7.4-.1-9-.4-.6-.7 1.3-.7 4.2zM602.3 73.5c0 2.7.2 3.8.4 2.2.2-1.5.2-3.7 0-5-.2-1.2-.4 0-.4 2.8zM605.3 73.5c0 2.7.2 3.8.4 2.2.2-1.5.2-3.7 0-5-.2-1.2-.4 0-.4 2.8zM498.1 72.2c0 1-.7 1.8-1.3 1.8-.9 0-1 .3-.2.8.6.4 1.4 1.4 1.7 2.2.4 1.2.6 1.2.6-.2.1-.9.9-1.9 1.9-2.1 1.5-.4 1.5-.5 0-.6-.9 0-1.9-.9-2.1-1.9-.4-1.6-.5-1.6-.6 0zM506.1 75l.1 3.5.7-3c.3-1.7 1.1-3 1.6-3s1.3 1.3 1.6 3c.7 3 .7 3 .8.3.1-3.8 2.1-4.6 2.1-.9 0 1.7.4 3.1.8 3.1.7 0 .8-2.4.3-6.2-.1-.4-1.9-.6-4.1-.5-3.9.1-4 .2-3.9 3.7zM516.4 72.4c-1 2.6 0 5.1 2.1 5.1 1.6 0 2-.7 2-3 0-3.3-3-4.9-4.1-2.1zm3.6 2.7c0 1-.7 1.9-1.5 1.9-1.5 0-2.1-3.1-.9-4.3 1.1-1 2.4.3 2.4 2.4zM522 71.3c0 1.3 2.3 6.7 2.9 6.7.9 0 3.2-6.2 2.5-6.9-.2-.3-.7.5-1.1 1.7-.6 2.5-2.3 3-2.3.8 0-.8-.4-1.8-1-2.1-.5-.3-1-.4-1-.2zM529.1 72.9c-.6 1.1-.8 2.7-.5 3.5.7 1.8 3.9 2.1 5 .5.4-.8 0-.9-1.5-.4-1.2.4-2.1.2-2.1-.4 0-.6.9-1.1 2.1-1.1 1.4 0 1.9-.5 1.7-1.7-.5-2.5-3.5-2.8-4.7-.4zm3.4.1c.3.5-.1 1-1 1s-1.3-.5-1-1c.3-.6.8-1 1-1 .2 0 .7.4 1 1zM543.1 72.9c-.6 1.1-.8 2.7-.5 3.5.7 1.7 3.9 2.2 4.8.7.4-.5-.3-.7-1.4-.4-1.1.3-2 0-2-.6s.9-1.1 2.1-1.1c1.4 0 1.9-.5 1.7-1.7-.5-2.5-3.5-2.8-4.7-.4zm3.4.1c.3.5-.1 1-1 1s-1.3-.5-1-1c.3-.6.8-1 1-1 .2 0 .7.4 1 1zM556.3 74.5c0 2.2.2 3 .4 1.7.2-1.2.2-3 0-4-.3-.9-.5.1-.4 2.3zM559.2 72.3c-1.6 1.9-.3 5.7 1.9 5.7 1.1 0 1.9-.4 1.9-1 0-.5-.7-.7-1.5-.4-1.1.5-1.5-.1-1.5-2 0-2.8.9-3.3 2.9-1.4 1 1.1 1.1 1 .6-.5-.8-2-2.8-2.2-4.3-.4zM568 72.5c-2.6 3.2 1.5 7.5 4.4 4.5.8-.9.6-1.1-1.1-.5-1.4.4-2.3.2-2.3-.4 0-.6.9-1.1 2-1.1 2.3 0 2.6-1 .8-2.8-1.6-1.6-2.3-1.5-3.8.3zm3.5.5c.3.5-.1 1-.9 1-.9 0-1.6-.5-1.6-1 0-.6.4-1 .9-1 .6 0 1.3.4 1.6 1zM589.1 74.9c.1 3.6.1 3.6.8.6.3-1.7 1.1-3 1.6-3s1.3 1.3 1.7 3c.6 2.9.6 2.9.5-.5-.2-2.9-.6-3.5-2.4-3.6-2-.1-2.3.3-2.2 3.5zM599 72.6c.4 3.1.1 4.4-1 4.4-.5 0-1-1.1-1-2.5s-.4-2.5-1-2.5c-.5 0-1 .6-1 1.4 0 3 1.3 4.6 3.6 4.6 2 0 2.4-.5 2.4-2.9 0-1.7-.5-3.3-1.1-3.7-.6-.3-1 .1-.9 1.2zM36.2 77.2c-1.6 1.6-1.5 5.3.3 6.8s4.7 1 5.3-1c.5-1.3.3-1.3-1.1-.1-2.3 1.9-4.7.7-4.7-2.4 0-3.1 2.4-4.3 4.7-2.4 1.4 1.2 1.6 1.2 1.1-.1-.6-1.9-4-2.4-5.6-.8zM44.3 80.5c0 2.7.2 3.8.4 2.2.2-1.5.2-3.7 0-5-.2-1.2-.4 0-.4 2.8zM549 77c0 .5.5 1 1 1 .6 0 1-.5 1-1 0-.6-.4-1-1-1-.5 0-1 .4-1 1zM47.5 79c-.3.6.1.7.9.4.9-.3 1.6-.1 1.6.5s-.6 1.1-1.4 1.1c-1.5 0-2.8 2.4-1.9 3.4.4.3 1.7.6 3 .6 2.4 0 3-2 1.7-5.4-.7-1.8-3-2.1-3.9-.6zm2.5 4c0 .5-.4 1-1 1-.5 0-1-.5-1-1 0-.6.5-1 1-1 .6 0 1 .4 1 1zM53.4 79.1c-.4.7.4 2 1.7 3.1l2.4 2-2.2-.5c-1.3-.3-2.3-.1-2.3.5 0 1.4 4.3.5 4.8-1 .2-.7-.5-1.6-1.7-1.9-1.2-.3-2.1-1-2.1-1.5 0-.6.7-.8 1.5-.4.8.3 1.5.1 1.5-.4 0-1.4-2.7-1.2-3.6.1zM59.4 79.2c-.4.6 0 1.6.9 2.3 2.1 1.5 2.2 2.9.2 2.1-.8-.3-1.5-.1-1.5.5 0 1.5 4.3.7 4.8-.9.2-.7-.5-1.6-1.7-1.9-1.2-.3-2.1-1-2.1-1.5 0-.6.7-.8 1.5-.4.8.3 1.5.1 1.5-.4 0-1.4-2.7-1.2-3.6.2zM65.7 78.6c-.4.4-.7 1.8-.7 3.1 0 2.6 2.6 4.1 4.2 2.5.8-.8.5-.9-1.1-.5-1.2.3-2.1.1-2.1-.6 0-.6.9-1.1 2.1-1.1 1.4 0 1.9-.5 1.7-1.7-.3-1.9-2.9-2.9-4.1-1.7zM69 80c0 .5-.7 1-1.6 1-.8 0-1.2-.5-.9-1 .3-.6 1-1 1.6-1 .5 0 .9.4.9 1zM72.7 78.7c-1.3 1.2-.7 3.3.8 3.3.8 0 1.5.5 1.5 1.1 0 .6-.7.9-1.5.5-.8-.3-1.5-.1-1.5.4 0 .6.9 1 2 1 1.3 0 2-.7 2-2 0-1.1-.7-2-1.5-2s-1.5-.5-1.5-1.1c0-.6.7-.9 1.5-.5.8.3 1.5.1 1.5-.4 0-1.1-2.3-1.3-3.3-.3zM83.5 80.1c-.8 2.3-.8 2.3-1.6.4-.5-1.2-.8-1.4-.8-.5 0 .8.4 2.4.9 3.5.8 1.9.8 1.9 1.7-.4l1-2.5.6 2.5c.6 2 .9 2.1 1.7.9.5-.8.9-2.4.9-3.5-.1-1.9-.1-1.9-.6-.1-.5 1.9-.6 1.8-1.8-.4l-1.3-2.3-.7 2.4zM90.2 79.3c-1.6 1.9-.3 5.7 1.9 5.7 1 0 2.1-.5 2.5-1.1.4-.8 0-.9-1.5-.4-1.2.4-2.1.2-2.1-.4 0-.6.9-1.1 2.1-1.1 1.4 0 1.9-.5 1.7-1.7-.4-2.2-3.1-2.8-4.6-1zm3.3.7c.3.5-.1 1-1 1s-1.3-.5-1-1c.3-.6.8-1 1-1 .2 0 .7.4 1 1zM189.1 79.6c0 1.1.3 1.4.6.6.3-.7.2-1.6-.1-1.9-.3-.4-.6.2-.5 1.3zM229.2 81c0 1.4.2 1.9.5 1.2.2-.6.2-1.8 0-2.5-.3-.6-.5-.1-.5 1.3zM149.1 82.6c0 1.1.3 1.4.6.6.3-.7.2-1.6-.1-1.9-.3-.4-.6.2-.5 1.3zM189.1 85.6c0 1.1.3 1.4.6.6.3-.7.2-1.6-.1-1.9-.3-.4-.6.2-.5 1.3zM229.1 86.6c0 1.1.3 1.4.6.6.3-.7.2-1.6-.1-1.9-.3-.4-.6.2-.5 1.3zM149.1 88.6c0 1.1.3 1.4.6.6.3-.7.2-1.6-.1-1.9-.3-.4-.6.2-.5 1.3zM567 91l-2 4h2c1.9 0 2 .6 2 11.5V118H389l.2 10.2.2 10.3.3-9.8.4-9.7h178.8l.4 9.7.3 9.8.2-9.8.2-9.7h178.9l.4 9.7.3 9.8.2-10.3.2-10.2H570v-11.5c0-9.6.3-11.5 1.5-11.5.8 0 1.5-.5 1.5-1 0-1.3-2.9-7-3.5-7-.3 0-1.4 1.8-2.5 4zm3.9.7c1.1 2.1.9 2.3-1.3 2.3-2.4 0-2.5-.2-1.4-2.5.6-1.4 1.2-2.4 1.3-2.3.1.2.8 1.3 1.4 2.5zM71 94.3c0 4.4.2 4.8 2.3 4.5 2.9-.4 3.7-5.5 1-6.5-1-.4-2.1-1.1-2.5-1.7-.4-.6-.8 1.1-.8 3.7zm3.7 2.1c-.4.9-1.1 1.6-1.7 1.6-1.1 0-1.4-3.3-.3-4.4 1.1-1 2.6 1.1 2 2.8zM189.1 91.6c0 1.1.3 1.4.6.6.3-.7.2-1.6-.1-1.9-.3-.4-.6.2-.5 1.3zM90.9 91.5c-.7.6.2 7.5 1 7.5.3 0 .6-1.6.5-3.5-.1-3.5-.6-4.9-1.5-4zM37.7 92.7c-.4.3-.7 1.7-.7 3 0 2.7 2.6 4.1 4.3 2.4.9-.9.8-1.1-.4-.6-1 .4-2 .2-2.3-.3-1-1.6.5-4.4 2.1-3.8.8.3 1.1.1.8-.4-.7-1.1-2.8-1.3-3.8-.3zM44.5 93c-.3.6.1.7.9.4.9-.3 1.6-.2 1.6.4 0 .5-.9 1.2-2.1 1.5-2.9.8-1.9 3.1 1.6 3.5 2.5.3 2.7.1 2.2-2-.4-1.3-.7-2.9-.7-3.6 0-1.4-2.6-1.6-3.5-.2zm2.5 4c0 .5-.4 1-1 1-.5 0-1-.5-1-1 0-.6.5-1 1-1 .6 0 1 .4 1 1zM50.1 95.9c.2 3 .3 3.2.6.8.2-1.5.9-2.7 1.4-2.7.5 0 .9-.4.9-.8 0-.5-.7-.9-1.5-.9-1.1 0-1.5 1-1.4 3.6zM54.7 92.6c-.4.4-.7 1.8-.7 3.1 0 2.7 2.6 4.1 4.3 2.4.9-.9.8-1.1-.4-.6-1 .4-2 .2-2.4-.4-.3-.7.3-1.1 1.5-1.1 1.5 0 2-.5 1.8-1.7-.3-1.9-2.9-2.9-4.1-1.7zM58 94c0 .5-.7 1-1.6 1-.8 0-1.2-.5-.9-1 .3-.6 1-1 1.6-1 .5 0 .9.4.9 1zM64.5 92.9c-.3.6 0 .8.8.5.8-.3 1.8-.1 2.1.4.3.5-.3 1.2-1.4 1.5-3.2.8-2.5 3.7.9 3.7 2.7 0 2.8-.2 2.2-3.2-.7-3.3-3.3-4.9-4.6-2.9zm3 4.1c-.3.5-1 1-1.6 1-.5 0-.9-.5-.9-1 0-.6.7-1 1.6-1 .8 0 1.2.4.9 1zM78.1 93.4c-1.9 2.3-.4 5.8 2.2 5.4 1.7-.2 2.2-1 2.2-3.3 0-3.4-2.4-4.5-4.4-2.1zm3.6 1.2c.8 2-1.3 4.2-2.7 2.8-1.2-1.2-.3-4.4 1.1-4.4.5 0 1.2.7 1.6 1.6zM84.3 95.2c.1 2.6.7 3.4 2.5 3.6 2 .3 2.2-.1 2.1-3.5-.1-3.5-.2-3.6-.8-.9-.8 4-2.8 4.4-3.5.7L84 92l.3 3.2zM149.1 94.6c0 1.1.3 1.4.6.6.3-.7.2-1.6-.1-1.9-.3-.4-.6.2-.5 1.3zM189.1 97.6c0 1.1.3 1.4.6.6.3-.7.2-1.6-.1-1.9-.3-.4-.6.2-.5 1.3zM149.1 100.6c0 1.1.3 1.4.6.6.3-.7.2-1.6-.1-1.9-.3-.4-.6.2-.5 1.3zM189.1 103.6c0 1.1.3 1.4.6.6.3-.7.2-1.6-.1-1.9-.3-.4-.6.2-.5 1.3zM229.1 105.6c0 1.1.3 1.4.6.6.3-.7.2-1.6-.1-1.9-.3-.4-.6.2-.5 1.3zM149.1 106.6c0 1.1.3 1.4.6.6.3-.7.2-1.6-.1-1.9-.3-.4-.6.2-.5 1.3zM19.3 108.7c.9.2 2.3.2 3 0 .6-.3-.1-.5-1.8-.5-1.6 0-2.2.2-1.2.5zM26.8 108.7c.7.3 1.6.2 1.9-.1.4-.3-.2-.6-1.3-.5-1.1 0-1.4.3-.6.6zM32.8 108.7c.7.3 1.6.2 1.9-.1.4-.3-.2-.6-1.3-.5-1.1 0-1.4.3-.6.6zM38.8 108.7c.7.3 1.6.2 1.9-.1.4-.3-.2-.6-1.3-.5-1.1 0-1.4.3-.6.6zM44.8 108.7c.7.3 1.6.2 1.9-.1.4-.3-.2-.6-1.3-.5-1.1 0-1.4.3-.6.6zM50.8 108.7c.7.3 1.6.2 1.9-.1.4-.3-.2-.6-1.3-.5-1.1 0-1.4.3-.6.6zM56.8 108.7c.7.3 1.6.2 1.9-.1.4-.3-.2-.6-1.3-.5-1.1 0-1.4.3-.6.6zM62.8 108.7c.7.3 1.6.2 1.9-.1.4-.3-.2-.6-1.3-.5-1.1 0-1.4.3-.6.6zM68.8 108.7c.7.3 1.6.2 1.9-.1.4-.3-.2-.6-1.3-.5-1.1 0-1.4.3-.6.6zM74.8 108.7c.7.3 1.6.2 1.9-.1.4-.3-.2-.6-1.3-.5-1.1 0-1.4.3-.6.6zM80.8 108.7c.7.3 1.6.2 1.9-.1.4-.3-.2-.6-1.3-.5-1.1 0-1.4.3-.6.6zM86.8 108.7c.7.3 1.6.2 1.9-.1.4-.3-.2-.6-1.3-.5-1.1 0-1.4.3-.6.6zM92.8 108.7c.7.3 1.6.2 1.9-.1.4-.3-.2-.6-1.3-.5-1.1 0-1.4.3-.6.6zM98.8 108.7c.7.3 1.6.2 1.9-.1.4-.3-.2-.6-1.3-.5-1.1 0-1.4.3-.6.6zM104.8 108.7c.7.3 1.6.2 1.9-.1.4-.3-.2-.6-1.3-.5-1.1 0-1.4.3-.6.6zM110.8 108.7c.7.3 1.6.2 1.9-.1.4-.3-.2-.6-1.3-.5-1.1 0-1.4.3-.6.6zM189.1 109.6c0 1.1.3 1.4.6.6.3-.7.2-1.6-.1-1.9-.3-.4-.6.2-.5 1.3zM12.8 109.7c.7.3 1.6.2 1.9-.1.4-.3-.2-.6-1.3-.5-1.1 0-1.4.3-.6.6zM116 109.4c0 .2.7.7 1.6 1 .8.3 1.2.2.9-.4-.6-1-2.5-1.4-2.5-.6zM229.1 110.6c0 1.1.3 1.4.6.6.3-.7.2-1.6-.1-1.9-.3-.4-.6.2-.5 1.3zM149.1 112.6c0 1.1.3 1.4.6.6.3-.7.2-1.6-.1-1.9-.3-.4-.6.2-.5 1.3zM189.1 115.6c0 1.1.3 1.4.6.6.3-.7.2-1.6-.1-1.9-.3-.4-.6.2-.5 1.3zM149.1 118.6c0 1.1.3 1.4.6.6.3-.7.2-1.6-.1-1.9-.3-.4-.6.2-.5 1.3zM189.1 121.6c0 1.1.3 1.4.6.6.3-.7.2-1.6-.1-1.9-.3-.4-.6.2-.5 1.3zM1.1 122.6c0 1.1.3 1.4.6.6.3-.7.2-1.6-.1-1.9-.3-.4-.6.2-.5 1.3zM128.1 122.6c0 1.1.3 1.4.6.6.3-.7.2-1.6-.1-1.9-.3-.4-.6.2-.5 1.3zM149.1 124.6c0 1.1.3 1.4.6.6.3-.7.2-1.6-.1-1.9-.3-.4-.6.2-.5 1.3zM189.1 127.6c0 1.1.3 1.4.6.6.3-.7.2-1.6-.1-1.9-.3-.4-.6.2-.5 1.3zM.1 128.6c0 1.1.3 1.4.6.6.3-.7.2-1.6-.1-1.9-.3-.4-.6.2-.5 1.3zM129.1 128.6c0 1.1.3 1.4.6.6.3-.7.2-1.6-.1-1.9-.3-.4-.6.2-.5 1.3zM229.1 129.6c0 1.1.3 1.4.6.6.3-.7.2-1.6-.1-1.9-.3-.4-.6.2-.5 1.3zM149.1 130.6c0 1.1.3 1.4.6.6.3-.7.2-1.6-.1-1.9-.3-.4-.6.2-.5 1.3zM189.1 133.6c0 1.1.3 1.4.6.6.3-.7.2-1.6-.1-1.9-.3-.4-.6.2-.5 1.3zM.1 134.6c0 1.1.3 1.4.6.6.3-.7.2-1.6-.1-1.9-.3-.4-.6.2-.5 1.3zM129.1 134.6c0 1.1.3 1.4.6.6.3-.7.2-1.6-.1-1.9-.3-.4-.6.2-.5 1.3zM229.1 134.6c0 1.1.3 1.4.6.6.3-.7.2-1.6-.1-1.9-.3-.4-.6.2-.5 1.3zM149.1 136.6c0 1.1.3 1.4.6.6.3-.7.2-1.6-.1-1.9-.3-.4-.6.2-.5 1.3zM50.1 139.2c-.5 1.3-.5 3.2-.1 4.3.9 2.5 5.5 3.3 6.3 1 .5-1.2.1-1.4-1.8-.9-2.2.5-2.5.3-2.5-2.1s.3-2.6 2.6-2.1c1.9.5 2.5.3 2.2-.6-.3-.7-1.7-1.4-3.1-1.6-2.1-.3-2.9.2-3.6 2zM189.1 139.6c0 1.1.3 1.4.6.6.3-.7.2-1.6-.1-1.9-.3-.4-.6.2-.5 1.3zM.1 140.6c0 1.1.3 1.4.6.6.3-.7.2-1.6-.1-1.9-.3-.4-.6.2-.5 1.3zM58.7 141.7c-.7 3.6-.2 4.3 2.9 4.3 2.2 0 2.5-.4 2.2-3.3-.2-2.4-.8-3.3-2.4-3.5-1.7-.2-2.3.3-2.7 2.5zm3.3 1.7c0 .3-.4.8-1 1.1-.5.3-1 .1-1-.4 0-.6.5-1.1 1-1.1.6 0 1 .2 1 .4zM65 142.5c0 1.9.5 3.5 1 3.5.6 0 1-1.1 1-2.5s.5-2.5 1-2.5c.6 0 1-.5 1-1 0-.6-.9-1-2-1-1.6 0-2 .7-2 3.5zM129.1 140.6c0 1.1.3 1.4.6.6.3-.7.2-1.6-.1-1.9-.3-.4-.6.2-.5 1.3zM149.1 142.6c0 1.1.3 1.4.6.6.3-.7.2-1.6-.1-1.9-.3-.4-.6.2-.5 1.3zM189.1 145.6c0 1.1.3 1.4.6.6.3-.7.2-1.6-.1-1.9-.3-.4-.6.2-.5 1.3zM.1 146.6c0 1.1.3 1.4.6.6.3-.7.2-1.6-.1-1.9-.3-.4-.6.2-.5 1.3zM129.1 146.6c0 1.1.3 1.4.6.6.3-.7.2-1.6-.1-1.9-.3-.4-.6.2-.5 1.3zM149.1 148.6c0 1.1.3 1.4.6.6.3-.7.2-1.6-.1-1.9-.3-.4-.6.2-.5 1.3zM352 151.4v4.6l2-2c1.1-1.1 2.5-2 3.1-2 .6 0 .9-1 .7-2.3-.2-1.6-1.1-2.3-3-2.5-2.7-.3-2.8-.2-2.8 4.2zm4-1.4c0 .5-.4 1-1 1-.5 0-1-.5-1-1 0-.6.5-1 1-1 .6 0 1 .4 1 1zM359.9 147.2c-.5 1.7-.2 8.8.3 8.8s.8-2 .8-4.5-.2-4.5-.5-4.5-.5.1-.6.2zM384 151.2c0 2.7.5 4.8 1 4.8.6 0 1-.8.8-1.7-.2-1 .4-1.9 1.5-2.1 1.2-.2 1.7.3 1.7 1.7 0 1.2.5 2.1 1 2.1.6 0 1-2 1-4.5s-.4-4.5-1-4.5c-.5 0-1 .7-1 1.5 0 2-2 1.9-3.6-.3-1.2-1.5-1.3-1.1-1.4 3zM410 147.9c0 .5-.9 1.1-2.1 1.4-1.6.4-2 1.2-1.7 3.4.2 2.2.9 2.9 3.1 3.1 2.6.3 2.7.2 2.7-4.2 0-2.5-.4-4.6-1-4.6-.5 0-1 .4-1 .9zm0 4.6c0 .8-.4 1.5-1 1.5-.5 0-1-.7-1-1.5s.5-1.5 1-1.5c.6 0 1 .7 1 1.5zM413.9 147.2c-.7 1.2-.4 8.8.2 8.8.5 0 .9-2 .9-4.5 0-3.7-.5-5.4-1.1-4.3zM537.9 149.1c-1.6 3.1.3 6.9 3.5 6.9 1.3 0 2.7-.7 3-1.6.5-1.2.1-1.4-1.5-.9-2.4.8-4-.9-3.2-3.2.4-1 1.4-1.2 2.9-.9 1.8.5 2.2.3 1.8-.9-.9-2.3-5.1-1.8-6.5.6zM557.9 147.2c0 .2-.1 2.2-.2 4.6-.1 2.8.2 4.2 1.1 4.2.6 0 1.2-.9 1.2-2s.7-2 1.5-2 1.5.9 1.5 2 .5 2 1 2c.6 0 1-2 1-4.5s-.4-4.5-1-4.5c-.5 0-1 .7-1 1.5s-.7 1.5-1.5 1.5-1.5-.7-1.5-1.5c0-1.2-1.8-2.3-2.1-1.3zM584 147.9c0 .5-.9 1.1-2.1 1.4-1.6.4-2 1.2-1.7 3.4.2 2.2.9 2.9 3.1 3.1 2.6.3 2.7.2 2.7-4.2 0-2.5-.4-4.6-1-4.6-.5 0-1 .4-1 .9zm0 4.6c0 .8-.4 1.5-1 1.5-.5 0-1-.7-1-1.5s.5-1.5 1-1.5c.6 0 1 .7 1 1.5zM587.8 148.2c-.5 4.4-.4 6.9.3 7.4.5.3.9-1.5.9-4 0-4.2-.8-6.4-1.2-3.4zM706.8 151.5c.4 4.5.5 4.6 3.6 4.3 2.9-.3 3.1-.5 3.1-4.3 0-3.9-.1-4-3.5-4.3l-3.5-.3.3 4.6zm4.9-1.9c-.3.3-1.2.4-1.9.1-.8-.3-.5-.6.6-.6 1.1-.1 1.7.2 1.3.5zm-.2 3.4c.3.5-.3 1-1.5 1s-1.8-.5-1.5-1c.3-.6 1-1 1.5-1s1.2.4 1.5 1zM715 151.5c0 2.5.5 4.5 1 4.5.7 0 1-1.9.9-4.5-.2-2.5-.6-4.5-1.1-4.5-.4 0-.8 2-.8 4.5zM738.2 151.5c.4 5.8 1.8 5.9 1.8 0 0-2.5-.5-4.5-1-4.5-.6 0-.9 2-.8 4.5zM748.9 148.2c-.5 4.7-.2 7.2 1 7.6.7.2 1.1-.3.9-1.4-.2-1.1.4-2 1.5-2.2 1.2-.2 1.7.3 1.7 1.7 0 1.2.5 2.1 1 2.1.6 0 1-2 1-4.5s-.4-4.5-1-4.5c-.5 0-1 .7-1 1.5s-.7 1.5-1.5 1.5-1.5-.7-1.5-1.5c0-1.8-1.9-2-2.1-.3zM775 147.9c0 .5-.9 1.1-2.1 1.4-1.6.4-2 1.2-1.7 3.4.2 2.2.9 2.9 3.1 3.1 2.6.3 2.7.2 2.7-4.2 0-2.5-.4-4.6-1-4.6-.5 0-1 .4-1 .9zm0 4.6c0 .8-.4 1.5-1 1.5-.5 0-1-.7-1-1.5s.5-1.5 1-1.5c.6 0 1 .7 1 1.5zM778 151.5c0 2.5.5 4.5 1 4.5.6 0 1-2 1-4.5s-.4-4.5-1-4.5c-.5 0-1 2-1 4.5zM362.7 151.7c-.7 3.6-.2 4.3 2.9 4.3 2.2 0 2.5-.4 2.2-3.3-.2-2.4-.8-3.3-2.4-3.5-1.7-.2-2.3.3-2.7 2.5zm3.3 2.3c0 .5-.5 1-1.1 1-.5 0-.7-.5-.4-1 .3-.6.8-1 1.1-1 .2 0 .4.4.4 1zM369.9 149.7c0 .4-.3 2-.5 3.5-.3 1.6 0 2.8.5 2.8s1.1-1 1.3-2.3c.4-2.8 2.1-2.5 3 .5.5 1.8.6 1.5.5-1.2-.2-2.8-.7-3.6-2.4-3.8-1.3-.2-2.3 0-2.4.5zM377 150.5c-.6.8-.9 2.3-.5 3.5.7 2.2 3.9 2.7 5.1.8.5-.8.2-.9-.9-.5-.9.3-1.9.2-2.2-.3-.4-.6.3-1 1.4-1 2.5 0 2.8-2.5.5-3.4-2.1-.8-2-.8-3.4.9zM392.6 149.9c-.4.5.2 1.2 1.1 1.4 1.7.4 1.7.5.1.6-1.1.1-1.8.9-1.8 2.1 0 1.5.7 2 2.6 2 2.3 0 2.5-.3 2.2-3.2-.3-3.2-2.9-5-4.2-2.9zm3.4 3.5c0 .3-.4.8-1 1.1-.5.3-1 .1-1-.4 0-.6.5-1.1 1-1.1.6 0 1 .2 1 .4zM399 152.5c0 1.9.5 3.5 1 3.5.6 0 .9-.3.9-.8-.1-.4-.1-1.5 0-2.5.2-2.7 2.1-2 2.1.8 0 1.4.5 2.5 1 2.5 1.1 0 1.3-3 .4-5.4-.3-.9-1.7-1.6-3-1.6-2.1 0-2.4.5-2.4 3.5zM417.1 150.4c-.7.8-1 2.4-.6 3.6.7 2.2 3.9 2.7 5.1.8.5-.8.2-.9-.9-.5-.9.3-1.9.2-2.2-.3-.4-.6.3-1 1.5-1 1.5 0 2-.5 1.8-1.7-.4-2.3-3.1-2.8-4.7-.9zM423.3 152.6c-.2 1.9.2 3.4.7 3.4.6 0 1-.9 1-1.9 0-1.1.5-2.3 1-2.6 1.6-1 1.2-2.1-.7-2.2-1.4-.1-1.9.7-2 3.3zM546.7 149.6c-.4.4-.7 2-.7 3.6 0 2.3.4 2.8 2.6 2.8 2.3 0 2.5-.3 2.2-3.2-.3-3.1-2.5-4.8-4.1-3.2zM553 152.7c0 1.8.5 3.3 1 3.3.6 0 1-1.1 1-2.5s.5-2.5 1-2.5c.6 0 1-.4 1-.9 0-.6-.9-.9-2-.8-1.6.1-2 .8-2 3.4zM566.7 149.6c-.4.4-.7 2-.7 3.6 0 2.4.4 2.8 2.9 2.8 2.7 0 2.8-.2 2.2-3.2-.6-3.1-2.9-4.7-4.4-3.2zM573 152.5c0 1.9.5 3.5 1 3.5.6 0 1-1.1 1-2.5s.5-2.5 1-2.5c.6 0 1 1.1 1 2.5s.5 2.5 1 2.5c1.1 0 1.3-3 .4-5.4-.3-.9-1.7-1.6-3-1.6-2.1 0-2.4.5-2.4 3.5zM591.1 150.4c-.7.8-1 2.4-.6 3.6.7 2.2 3.9 2.7 5.1.8.5-.8.2-.9-.9-.5-.9.3-1.9.2-2.2-.3-.4-.6.3-1 1.5-1 1.5 0 2-.5 1.8-1.7-.4-2.3-3.1-2.8-4.7-.9zM597.2 152.6c-.2 1.9.2 3.4.8 3.4.5 0 1-.9 1-1.9 0-1.1.5-2.3 1-2.6 1.6-1 1.2-2.1-.8-2.2-1.4-.1-1.9.7-2 3.3zM718.9 150.6c-1.7 2-.1 5.6 2.4 5.2 1.1-.2 2.2-.8 2.4-1.5.3-.7-.3-.9-1.6-.6-1.5.4-2.1.1-2.1-1.2 0-1.2.5-1.5 2-1 1.3.4 2 .2 2.1-.7 0-.7.6.3 1.3 2.2.9 2.5 1 3.7.2 4.2-1.3.9-.1 2.2 1.2 1.4 1.5-.9 4.3-9.6 3-9.6-.5 0-1.2 1-1.6 2.2-.5 2.1-.6 2.1-1.2.3-.8-2.3-6.4-3-8.1-.9zM732.2 150.6c-.5.9-.7 2.5-.5 3.5.6 2 3.8 2.6 4.8.9.3-.6-.3-1-1.5-1-1.3 0-2-.5-1.7-1.3.2-.6 1.2-1.1 2.1-1.1 2.1.2 1.5-2-.7-2.4-.8-.2-2 .4-2.5 1.4zM742.1 150.4c-.7.8-1 2.4-.6 3.6.7 2.2 3.9 2.7 5.1.8.5-.8.2-.9-.9-.5-.9.3-1.9.2-2.2-.3-.4-.6.3-1 1.5-1 1.5 0 2-.5 1.8-1.7-.4-2.3-3.1-2.8-4.7-.9zM757.7 149.6c-.4.4-.7 2-.7 3.6 0 2.4.4 2.8 2.9 2.8 2.7 0 2.8-.2 2.2-3.2-.6-3.1-2.9-4.7-4.4-3.2zM764 152.5c0 1.9.5 3.5 1 3.5.6 0 1-1.1 1-2.5s.5-2.5 1-2.5c.6 0 1 1.1 1 2.5s.5 2.5 1 2.5c1.4 0 1.3-4.3-.2-5.8-.7-.7-2-1.2-3-1.2-1.4 0-1.8.8-1.8 3.5zM782.1 150.4c-2.7 3.3 1.4 7.7 4.3 4.5.8-.9.7-1.1-.6-.6-1 .3-2 .2-2.3-.3-.4-.6.3-1 1.5-1 1.5 0 2-.5 1.8-1.7-.4-2.3-3.1-2.8-4.7-.9zM788.7 149.7c-1.1 1-.8 6.3.3 6.3.6 0 1-.9 1-1.9 0-1.1.5-2.3 1-2.6.6-.3 1-1 1-1.6 0-1-2.3-1.2-3.3-.2zM189.1 151.6c0 1.1.3 1.4.6.6.3-.7.2-1.6-.1-1.9-.3-.4-.6.2-.5 1.3zM.1 152.6c0 1.1.3 1.4.6.6.3-.7.2-1.6-.1-1.9-.3-.4-.6.2-.5 1.3zM129 152.5c0 .9.6 1.2 1.5.9.8-.4 1.5-.7 1.5-.9 0-.2-.7-.5-1.5-.9-.9-.3-1.5 0-1.5.9zM111.8 152.7c.7.3 1.6.2 1.9-.1.4-.3-.2-.6-1.3-.5-1.1 0-1.4.3-.6.6zM117.8 152.7c.7.3 1.6.2 1.9-.1.4-.3-.2-.6-1.3-.5-1.1 0-1.4.3-.6.6zM123.8 152.7c.7.3 1.6.2 1.9-.1.4-.3-.2-.6-1.3-.5-1.1 0-1.4.3-.6.6zM141.8 152.7c.7.3 1.6.2 1.9-.1.4-.3-.2-.6-1.3-.5-1.1 0-1.4.3-.6.6zM147.6 152.8c.6.4 1.4 1.4 1.7 2.2.4 1 .6.8.6-.8.1-1.5-.5-2.2-1.6-2.2s-1.4.3-.7.8zM153.8 152.7c.7.3 1.6.2 1.9-.1.4-.3-.2-.6-1.3-.5-1.1 0-1.4.3-.6.6zM159.8 152.7c.7.3 1.6.2 1.9-.1.4-.3-.2-.6-1.3-.5-1.1 0-1.4.3-.6.6zM165.8 152.7c.7.3 1.6.2 1.9-.1.4-.3-.2-.6-1.3-.5-1.1 0-1.4.3-.6.6zM177.8 152.7c.7.3 1.6.2 1.9-.1.4-.3-.2-.6-1.3-.5-1.1 0-1.4.3-.6.6zM183.8 152.7c.7.3 1.6.2 1.9-.1.4-.3-.2-.6-1.3-.5-1.1 0-1.4.3-.6.6zM229.1 153.6c0 1.1.3 1.4.6.6.3-.7.2-1.6-.1-1.9-.3-.4-.6.2-.5 1.3zM.1 158.6c0 1.1.3 1.4.6.6.3-.7.2-1.6-.1-1.9-.3-.4-.6.2-.5 1.3zM129.1 158.6c0 1.1.3 1.4.6.6.3-.7.2-1.6-.1-1.9-.3-.4-.6.2-.5 1.3zM229.1 158.6c0 1.1.3 1.4.6.6.3-.7.2-1.6-.1-1.9-.3-.4-.6.2-.5 1.3zM149.1 160.6c0 1.1.3 1.4.6.6.3-.7.2-1.6-.1-1.9-.3-.4-.6.2-.5 1.3zM.1 164.6c0 1.1.3 1.4.6.6.3-.7.2-1.6-.1-1.9-.3-.4-.6.2-.5 1.3zM129.1 164.6c0 1.1.3 1.4.6.6.3-.7.2-1.6-.1-1.9-.3-.4-.6.2-.5 1.3zM149.1 166.6c0 1.1.3 1.4.6.6.3-.7.2-1.6-.1-1.9-.3-.4-.6.2-.5 1.3zM.1 170.6c0 1.1.3 1.4.6.6.3-.7.2-1.6-.1-1.9-.3-.4-.6.2-.5 1.3zM129.1 170.6c0 1.1.3 1.4.6.6.3-.7.2-1.6-.1-1.9-.3-.4-.6.2-.5 1.3zM56.3 173.7c-.8 3.4-.7 6.3.4 7.4.4.4.8-1.7.8-4.7 0-2.9-.1-5.4-.2-5.4-.2 0-.6 1.2-1 2.7zM59.9 173.6c.5 1.7.7 4.4.5 6-.4 2.4-.3 2.6.5.9 1.4-3 1.3-5.9-.4-8.1-1.3-1.8-1.4-1.7-.6 1.2zM83.3 175.5c0 2.5.4 4.5.8 4.5.5 0 .9-2 .9-4.5s-.4-4.5-.9-4.5c-.4 0-.8 2-.8 4.5zM86.3 175.5c0 2.7.2 3.8.4 2.2.2-1.5.2-3.7 0-5-.2-1.2-.4 0-.4 2.8zM149.1 172.6c0 1.1.3 1.4.6.6.3-.7.2-1.6-.1-1.9-.3-.4-.6.2-.5 1.3zM18.1 174.2c0 1-.7 1.8-1.3 1.8-.9 0-1 .3-.2.8.6.4 1.4 1.4 1.7 2.2.4 1.2.6 1.2.6-.2.1-.9.9-1.9 1.9-2.1 1.5-.4 1.5-.5 0-.6-.9 0-1.9-.9-2.1-1.9-.4-1.6-.5-1.6-.6 0zM26.1 177l.1 3.5.7-3c.3-1.7 1.1-3 1.6-3s1.3 1.3 1.6 3c.7 3 .7 3 .8.3.2-4 2.1-4.5 2.1-.6.1 3 .2 3.1 1.4 1.5 1.2-1.5 1.4-1.6 2-.2.8 2.1 4.3 1.9 4.9-.4 1-3.9-3.6-7.2-5-3.5-.6 1.5-.7 1.5-1.7.2-.7-1-2.6-1.5-4.9-1.5-3.6.1-3.7.2-3.6 3.7zm13.9-.5c0 1.6-.6 2.5-1.5 2.5-1.5 0-2.1-3.1-.8-4.3 1.3-1.4 2.3-.6 2.3 1.8zM42 173.3c0 1.3 2.3 6.7 2.9 6.7.9 0 3.2-6.2 2.5-6.9-.2-.3-.7.5-1.1 1.7-.6 2.5-2.3 3-2.3.8 0-.8-.4-1.8-1-2.1-.5-.3-1-.4-1-.2zM49.1 174.9c-.6 1.1-.8 2.7-.5 3.5.7 1.8 3.9 2.1 5 .5.4-.8 0-.9-1.5-.4-1.2.4-2.1.2-2.1-.4 0-.6.9-1.1 2.1-1.1 1.4 0 1.9-.5 1.7-1.7-.5-2.5-3.5-2.8-4.7-.4zm3.4.1c.3.5-.1 1-1 1s-1.3-.5-1-1c.3-.6.8-1 1-1 .2 0 .7.4 1 1zM70.1 176.7c.1 3.6.2 3.7.8.8.3-1.7 1.1-3 1.6-3s1.3 1.3 1.7 3c.6 2.9.6 2.9.5-.5-.2-2.8-.6-3.6-2.4-3.8-2.1-.3-2.3.1-2.2 3.5zM77.2 176.2c-.2 3.4 0 3.8 2.3 3.8 2.2 0 2.5-.4 2.4-3.8l-.1-3.7-.9 3.2c-.5 1.8-1.4 3.3-1.9 3.3s-1.1-1.5-1.3-3.3c-.4-3.1-.4-3.1-.5.5zM.1 176.6c0 1.1.3 1.4.6.6.3-.7.2-1.6-.1-1.9-.3-.4-.6.2-.5 1.3zM129.1 176.6c0 1.1.3 1.4.6.6.3-.7.2-1.6-.1-1.9-.3-.4-.6.2-.5 1.3zM229.1 177.6c0 1.1.3 1.4.6.6.3-.7.2-1.6-.1-1.9-.3-.4-.6.2-.5 1.3zM149.1 178.6c0 1.1.3 1.4.6.6.3-.7.2-1.6-.1-1.9-.3-.4-.6.2-.5 1.3zM.1 182.6c0 1.1.3 1.4.6.6.3-.7.2-1.6-.1-1.9-.3-.4-.6.2-.5 1.3zM129.1 182.6c0 1.1.3 1.4.6.6.3-.7.2-1.6-.1-1.9-.3-.4-.6.2-.5 1.3zM229.1 182.6c0 1.1.3 1.4.6.6.3-.7.2-1.6-.1-1.9-.3-.4-.6.2-.5 1.3zM349.8 182c-.5 1.7.3 8 1.1 8 .7 0 .6-7.9-.2-8.6-.3-.3-.7 0-.9.6zM359.5 182.7c.4 1 1.2 3 1.7 4.5.5 1.6 1.3 2.8 1.7 2.8 1.1 0 3.6-7.9 2.8-8.7-.4-.3-1 .8-1.3 2.5-.8 4-2 4.1-2.9.2-.4-1.7-1.1-3-1.7-3-.6 0-.7.8-.3 1.7zM373.4 185.5c0 2.5.4 4.5.8 4.5s.8-1.4.8-3c0-1.7.5-3 1-3 .6 0 1 1.1 1 2.4 0 1.4.5 2.8 1 3.1 1.1.7 1.3-2.4.4-4.9-.3-.9-1.2-1.6-2-1.6s-1.4-.5-1.4-1c0-.6-.4-1-.8-1-.5 0-.9 2-.8 4.5zM389.3 185.5c0 2.7.2 3.8.4 2.2.2-1.5.2-3.7 0-5-.2-1.2-.4 0-.4 2.8zM398.9 183.1c-1.2 2.3-.4 8.9 1.1 8.9.5 0 .5-1.2-.1-2.8-.6-1.9-.6-3.8 0-5.5 1.2-3.2.6-3.6-1-.6zM402.5 186.5c0 2.9.3 5.1.8 4.8.9-.5.9-7.4-.1-9-.4-.6-.7 1.3-.7 4.2zM409.5 182.7c.4 1 1.2 3 1.7 4.5 1.4 3.8 2.3 3.5 3.6-1.1 1.7-5.5 1.3-6.3-.7-1.6l-1.8 4-.7-3.8c-.4-2-1.2-3.7-1.8-3.7-.6 0-.7.7-.3 1.7zM423.2 185c.2 4.8 1.8 6.6 1.8 2.1 0-1.7.5-3.1 1-3.1.6 0 1 1.1 1 2.4 0 1.4.5 2.8 1 3.1.6.4 1-.7 1-2.5 0-2.3-.5-3.3-2-3.7-1.1-.3-2-.9-2-1.4 0-.5-.4-.9-1-.9-.5 0-.9 1.8-.8 4zM439.3 185.5c0 2.7.2 3.8.4 2.2.2-1.5.2-3.7 0-5-.2-1.2-.4 0-.4 2.8zM529.8 182c-.5 1.7.3 8 1.1 8 .7 0 .6-7.9-.2-8.6-.3-.3-.7 0-.9.6zM539.6 183.2c2.5 8.2 3.3 8.6 5.6 2.3 1-2.5 1.3-4.5.8-4.5-.4 0-1.4 1.5-2 3.2l-1.3 3.3-1-3.3c-.5-1.7-1.4-3.2-1.9-3.2s-.6 1-.2 2.2zM553.9 181c-.7 2.2-.5 9 .2 9 .5 0 .9-1.1.9-2.4 0-1.4.5-2.8 1-3.1.6-.4 1 .7 1 2.4s.5 3.1 1 3.1c1.8 0 1.1-6-.7-6.7-1-.4-2.1-1.1-2.5-1.7-.4-.6-.8-.9-.9-.6zM569.3 185.5c0 2.7.2 3.8.4 2.2.2-1.5.2-3.7 0-5-.2-1.2-.4 0-.4 2.8zM579 182.9c-1.3 2.5-1.3 6.2.1 8.1.8 1.1.9.7.4-1.6-.3-1.7-.1-4.3.4-5.7 1.2-3.1.6-3.6-.9-.8zM582.5 186.5c0 2.9.3 5.1.8 4.8.9-.5.9-7.4-.1-9-.4-.6-.7 1.3-.7 4.2zM589 181.5c0 1.3 3.3 8.5 4 8.5.8 0 3.3-8 2.7-8.6-.3-.3-1 1-1.7 2.8l-1.3 3.3-1-3.3c-.5-1.7-1.4-3.2-1.8-3.2-.5 0-.9.2-.9.5zM603 185.5c0 2.5.5 4.5 1 4.5.6 0 1-1.1 1-2.4 0-3.2 2-4.5 2.1-1.4.1 1.3.1 2.6 0 3 0 .5.4.8.9.8 1.1 0 1.3-3 .4-5.4-.3-.9-1.2-1.6-2-1.6s-1.4-.5-1.4-1c0-.6-.4-1-1-1-.5 0-1 2-1 4.5zM619.3 185.5c0 2.7.2 3.8.4 2.2.2-1.5.2-3.7 0-5-.2-1.2-.4 0-.4 2.8zM709.8 182.2c-.7 1.6.2 7.8 1.1 7.8.7 0 .6-7.9-.2-8.6-.2-.3-.7.1-.9.8zM719.6 183.2c2.5 8.1 3.5 8.6 5.3 2.7 1.5-5 .8-6.3-.9-1.7l-1.3 3.3-1-3.3c-.5-1.7-1.4-3.2-1.9-3.2s-.6 1-.2 2.2zM733 185.5c0 2.5.5 4.5 1 4.5.6 0 1-1.1 1-2.4 0-1.4.5-2.8 1-3.1.6-.4 1 .7 1 2.4s.5 3.1 1 3.1c.6 0 1-1.4 1-3.1 0-2.2-.5-3.2-2-3.6-1.1-.3-2-.9-2-1.4 0-.5-.4-.9-1-.9-.5 0-1 2-1 4.5zM749.3 185.5c0 2.7.2 3.8.4 2.2.2-1.5.2-3.7 0-5-.2-1.2-.4 0-.4 2.8zM759.2 182.2c-2 2-1.3 9.8.9 9.8.4 0 .4-1.3-.2-2.8-.6-1.9-.6-3.8 0-5.5 1.2-3 1-3.2-.7-1.5zM762.5 186.5c0 5.6 1 6.5 1.7 1.6.2-1.6 0-3.9-.6-5-.9-1.6-1.1-1-1.1 3.4zM769.5 182.7c.4 1 1.2 3 1.7 4.5 1.4 3.8 2.2 3.5 3.8-1.2 1.6-4.9.7-6.4-1-1.8l-1.3 3.3-1-3.3c-.5-1.7-1.4-3.2-2-3.2-.5 0-.6.8-.2 1.7zM783.7 181.7c-1.1 1-.8 8.3.3 8.3.6 0 1-1.1 1-2.4 0-1.4.5-2.8 1-3.1.6-.4 1 .7 1 2.4s.5 3.1 1 3.1c1.8 0 1.1-6-.7-6.7-1-.4-2.1-1-2.4-1.5-.3-.5-.8-.5-1.2-.1zM799.3 185.5c0 2.7.2 3.8.4 2.2.2-1.5.2-3.7 0-5-.2-1.2-.4 0-.4 2.8zM149.1 184.6c0 1.1.3 1.4.6.6.3-.7.2-1.6-.1-1.9-.3-.4-.6.2-.5 1.3zM318.1 184.2c0 1-.7 1.8-1.3 1.8-.9 0-1 .3-.2.8.6.4 1.4 1.4 1.7 2.2.4 1.2.6 1.2.6-.2.1-.9.9-1.9 1.9-2.1 1.5-.4 1.5-.5 0-.6-.9 0-1.9-.9-2.1-1.9-.4-1.6-.5-1.6-.6 0zM326.7 183.6c-.4.4-.7 1.8-.7 3.1 0 2.7 2.6 4.1 4.3 2.3.9-1 .7-1.1-1-.5-1.8.5-2.3.2-2.3-1.3 0-2.6 1.1-3.4 2.8-1.9 1.3 1 1.4.9 1-.3-.5-1.7-3-2.5-4.1-1.4zM332.1 186.9c.2 3 .3 3.2.6.8.2-1.5.9-2.7 1.4-2.7.5 0 .9-.4.9-.8 0-.5-.7-.9-1.5-.9-1.1 0-1.5 1-1.4 3.6zM336.7 183.7c-.4.3-.7 1.9-.7 3.5 0 2.1.5 2.8 1.9 2.8 1.1 0 2.2-.4 2.5-.9.4-.5-.3-.7-1.4-.4-1.1.3-2 0-2-.6s1.1-1.1 2.5-1.1c2.3 0 2.4-.2 1.5-2-1.1-2-3.1-2.6-4.3-1.3zm2.8 1.3c.3.5-.1 1-1 1s-1.3-.5-1-1c.3-.6.8-1 1-1 .2 0 .7.4 1 1zM343.5 183.9c-.3.7 0 .8.9.5.9-.3 1.6-.1 1.6.5s-.7 1.1-1.5 1.1-1.5.4-1.5 1v1.7c0 .5 1.1.8 2.5.9 2.3.1 2.6-.2 2.3-3-.3-3.1-3-4.8-4.3-2.7zm3 4.1c-.3.5-1 1-1.6 1-.5 0-.9-.5-.9-1 0-.6.7-1 1.6-1 .8 0 1.2.4.9 1zM353.1 184.9c-.6 1.1-.8 2.7-.5 3.5.7 1.8 3.9 2.1 5 .5.4-.8 0-.9-1.5-.4-1.2.4-2.1.2-2.1-.4 0-.6.9-1.1 2.1-1.1 1.4 0 1.9-.5 1.7-1.7-.5-2.5-3.5-2.8-4.7-.4zm3.4.1c.3.5-.1 1-1 1s-1.3-.5-1-1c.3-.6.8-1 1-1 .2 0 .7.4 1 1zM367.1 184.9c-.6 1.1-.8 2.7-.5 3.5.7 1.8 3.9 2.1 5 .5.4-.8 0-.9-1.5-.4-1.2.4-2.1.2-2.1-.4 0-.6.9-1.1 2.1-1.1 1.4 0 1.9-.5 1.7-1.7-.5-2.5-3.5-2.8-4.7-.4zm3.4.1c.3.5-.1 1-1 1s-1.3-.5-1-1c.3-.6.8-1 1-1 .2 0 .7.4 1 1zM380.3 186.5c0 2.2.2 3 .4 1.7.2-1.2.2-3 0-4-.3-.9-.5.1-.4 2.3zM383 184.5c-1.6 1.9-.3 5.5 2.1 5.5 1 0 1.9-.4 1.9-1 0-.5-.7-.7-1.5-.4-1.1.5-1.5-.1-1.5-2.1s.4-2.6 1.5-2.1c.8.3 1.5.1 1.5-.4 0-1.5-2.6-1.2-4 .5zM392.1 184.4c-2.7 3.3 1.4 7.6 4.3 4.6.8-.9.6-1.1-1.1-.5-1.4.4-2.3.2-2.3-.4 0-.6.9-1.1 2.1-1.1 1.4 0 1.9-.5 1.7-1.7-.4-2.3-3.1-2.8-4.7-.9zm3.4.6c.3.5-.1 1-1 1s-1.3-.5-1-1c.3-.6.8-1 1-1 .2 0 .7.4 1 1zM417.1 184.9c-.6 1.1-.8 2.7-.5 3.5.7 1.8 3.9 2.1 5 .5.4-.8 0-.9-1.5-.4-1.2.4-2.1.2-2.1-.4 0-.6.9-1.1 2.1-1.1 1.4 0 1.9-.5 1.7-1.7-.5-2.5-3.5-2.8-4.7-.4zm3.4.1c.3.5-.1 1-1 1s-1.3-.5-1-1c.3-.6.8-1 1-1 .2 0 .7.4 1 1zM430.3 186.5c0 2.2.2 3 .4 1.7.2-1.2.2-3 0-4-.3-.9-.5.1-.4 2.3zM433.2 184.3c-1.6 1.9-.3 5.7 1.9 5.7 1.1 0 1.9-.4 1.9-1 0-.5-.7-.7-1.5-.4-1.1.5-1.5-.1-1.5-2.1s.4-2.6 1.5-2.1c.8.3 1.5.1 1.5-.4 0-1.4-2.6-1.2-3.8.3zM442 184.5c-.6.8-.9 2.3-.5 3.5.7 2.1 3.9 2.7 5.1.9.4-.8 0-.9-1.5-.4-1.2.4-2.1.2-2.1-.4 0-.6.9-1.1 2-1.1 2.4 0 2.7-2.5.4-3.4-2.1-.8-2-.8-3.4.9zm3.5.5c.3.5-.1 1-.9 1-.9 0-1.6-.5-1.6-1 0-.6.4-1 .9-1 .6 0 1.3.4 1.6 1zM498.1 184.2c0 1-.7 1.8-1.3 1.8-.9 0-1 .3-.2.8.6.4 1.4 1.4 1.7 2.2.4 1.2.6 1.2.6-.2.1-.9.9-1.9 1.9-2.1 1.5-.4 1.5-.5 0-.6-.9 0-1.9-.9-2.1-1.9-.4-1.6-.5-1.6-.6 0zM506.2 184.7c-1.9 3.4 2.4 7.4 4.4 4.1.5-.8.2-.9-.9-.5-1.9.7-3.1-.8-2.3-3 .5-1.3.9-1.3 2.3-.2 1.4 1.2 1.6 1.2 1.1-.1-.7-2.2-3.5-2.4-4.6-.3zM512.1 186.9c.2 3 .3 3.2.6.8.2-1.5.9-2.7 1.4-2.7.5 0 .9-.4.9-.8 0-.5-.7-.9-1.5-.9-1.1 0-1.5 1-1.4 3.6zM516.4 184.4c-1 2.6.1 5.1 2.4 5.4 1.2.2 2.2-.1 2.2-.6 0-.6-.9-.8-2-.5-1.1.3-2 0-2-.6s.9-1.1 2.1-1.1c1.4 0 1.9-.5 1.7-1.7-.4-2.3-3.6-2.9-4.4-.9zm3.1.6c.3.5-.1 1-1 1s-1.3-.5-1-1c.3-.6.8-1 1-1 .2 0 .7.4 1 1zM523.5 183.9c-.3.7 0 .8.9.5.9-.3 1.6-.1 1.6.5s-.6 1.1-1.4 1.1c-1.5 0-2.8 2.4-1.9 3.4.4.3 1.7.6 3 .6 2.1 0 2.4-.4 2.1-3.2-.3-3.3-2.9-5-4.3-2.9zm3 4.1c-.3.5-1 1-1.6 1-.5 0-.9-.5-.9-1 0-.6.7-1 1.6-1 .8 0 1.2.4.9 1zM533.1 184.4c-1.7 2-.4 5.6 1.9 5.6 1 0 2.1-.4 2.4-.9.4-.5-.3-.7-1.4-.4-1.1.3-2 0-2-.6s.9-1.1 2.1-1.1c1.4 0 1.9-.5 1.7-1.7-.4-2.3-3.1-2.8-4.7-.9zm3.4.6c.3.5-.1 1-1 1s-1.3-.5-1-1c.3-.6.8-1 1-1 .2 0 .7.4 1 1zM547.2 184.6c-.5.9-.7 2.5-.5 3.5.6 2.1 3.8 2.6 4.9.8.4-.8 0-.9-1.5-.4-1.2.4-2.1.2-2.1-.4 0-.6.9-1.1 2.1-1.1 1.4 0 1.9-.5 1.7-1.7-.4-2.4-3.4-2.8-4.6-.7zm3.3.4c.3.5-.1 1-1 1s-1.3-.5-1-1c.3-.6.8-1 1-1 .2 0 .7.4 1 1zM560.3 186.5c0 2.2.2 3 .4 1.7.2-1.2.2-3 0-4-.3-.9-.5.1-.4 2.3zM563 184.5c-1.6 1.9-.3 5.5 2.1 5.5 1 0 1.9-.4 1.9-1 0-.5-.7-.7-1.5-.4-1 .4-1.5 0-1.5-1.3 0-2.7 1-3.5 2.7-2.1 1.1.8 1.2.7.7-.6-.8-2-2.8-2.1-4.4-.1zM572.1 184.4c-2.7 3.3 1.4 7.6 4.3 4.6.8-.9.6-1.1-1.1-.5-1.4.4-2.3.2-2.3-.4 0-.6.9-1.1 2.1-1.1 1.4 0 1.9-.5 1.7-1.7-.4-2.3-3.1-2.8-4.7-.9zm3.4.6c.3.5-.1 1-1 1s-1.3-.5-1-1c.3-.6.8-1 1-1 .2 0 .7.4 1 1zM597.2 184.3c-1.6 1.9-.3 5.7 1.9 5.7 1 0 2-.4 2.3-.9.4-.5-.3-.7-1.4-.4-1.1.3-2 0-2-.6s.9-1.1 2.1-1.1c1.4 0 1.9-.5 1.7-1.7-.4-2.2-3.1-2.8-4.6-1zm3.3.7c.3.5-.1 1-1 1s-1.3-.5-1-1c.3-.6.8-1 1-1 .2 0 .7.4 1 1zM610 186.5c0 1.9.4 3.5.8 3.5s.6-1.6.4-3.5c-.2-1.9-.6-3.5-.8-3.5-.2 0-.4 1.6-.4 3.5zM613.2 184.3c-1.6 1.9-.3 5.7 1.9 5.7 1.1 0 1.9-.4 1.9-1 0-.5-.7-.7-1.5-.4-1.1.5-1.5-.1-1.5-2.1s.4-2.6 1.5-2.1c.8.3 1.5.1 1.5-.4 0-1.4-2.6-1.2-3.8.3zM622 184.5c-2.6 3.2 1.5 7.5 4.4 4.5.8-.9.6-1.1-1.1-.5-1.4.4-2.3.2-2.3-.4 0-.6.9-1.1 2-1.1 2.4 0 2.7-2.5.4-3.4-2.1-.8-2-.8-3.4.9zm3.5.5c.3.5-.1 1-1 1s-1.3-.5-1-1c.3-.6.8-1 1-1 .2 0 .7.4 1 1zM678.1 184.2c0 .9-.9 1.9-1.8 2.1-1.7.4-1.7.5 0 .6.9 0 1.7.8 1.7 1.6 0 1.2.3 1.2 1.8-.3 1.2-1.1 1.4-1.8.5-2-.6-.2-1.4-1.1-1.6-2-.4-1.6-.5-1.6-.6 0zM686.2 184.7c-1.8 3.4 2.4 7.4 4.4 4.2.4-.8 0-.9-1.5-.4-1.6.5-2.1.2-2.1-1.3 0-2.6 1.1-3.4 2.8-1.9 1.3 1 1.4.9 1-.3-.7-2.2-3.5-2.4-4.6-.3zM692.1 186.9c.1 2.1.3 2.8.6 1.6.3-1.1.9-2.4 1.4-3 1.3-1.3 1.1-2.2-.6-2.2-1.1 0-1.5 1-1.4 3.6zM696.7 183.7c-.4.3-.7 1.9-.7 3.5 0 2.3.4 2.8 2.5 2.8 1.4 0 2.5-.4 2.5-1 0-.5-.6-.7-1.4-.4-.8.3-1.7.1-2.1-.5-.4-.7.4-1.1 2-1.1 2.3 0 2.4-.2 1.5-2-1.1-2-3.1-2.6-4.3-1.3zm2.8 1.3c.3.5-.1 1-1 1s-1.3-.5-1-1c.3-.6.8-1 1-1 .2 0 .7.4 1 1zM703.4 184.1c-.5.9-.2 1 .9.6 1-.3 1.7-.2 1.7.3 0 .6-.7 1-1.5 1s-1.5.9-1.5 2c0 1.5.7 2 2.6 2 2.3 0 2.5-.3 2.2-3.2-.3-3.4-2.9-5-4.4-2.7zm3.1 3.9c-.3.5-1 1-1.6 1-.5 0-.9-.5-.9-1 0-.6.7-1 1.6-1 .8 0 1.2.4.9 1zM713.1 184.9c-.6 1.1-.8 2.7-.5 3.5.7 1.8 3.9 2.1 5 .5.4-.8 0-.9-1.5-.4-1.2.4-2.1.2-2.1-.4 0-.6.9-1.1 2.1-1.1 1.4 0 1.9-.5 1.7-1.7-.5-2.5-3.5-2.8-4.7-.4zm3.4.1c.3.5-.1 1-1 1s-1.3-.5-1-1c.3-.6.8-1 1-1 .2 0 .7.4 1 1zM727 185c-.6 1.2-.9 2.8-.6 3.6.6 1.6 4.2 1.9 5 .5.4-.5-.3-.7-1.4-.4-1.1.3-2 0-2-.6s.9-1.1 2.1-1.1c1.4 0 1.9-.5 1.7-1.7-.5-2.6-3.5-2.7-4.8-.3zm3.5 0c.3.5-.1 1-1 1s-1.3-.5-1-1c.3-.6.8-1 1-1 .2 0 .7.4 1 1zM740.3 186.5c0 2.2.2 3 .4 1.7.2-1.2.2-3 0-4-.3-.9-.5.1-.4 2.3zM743 184.5c-1.6 1.9-.3 5.5 2.1 5.5 1 0 1.9-.4 1.9-1 0-.5-.7-.7-1.5-.4-1 .4-1.5 0-1.5-1.3 0-2.7 1-3.5 2.7-2.1 1.1.8 1.2.7.7-.6-.8-2-2.8-2.1-4.4-.1zM752.1 184.4c-2.7 3.3 1.4 7.6 4.3 4.6.8-.9.6-1.1-1.1-.5-1.4.4-2.3.2-2.3-.4 0-.6.9-1.1 2.1-1.1 1.4 0 1.9-.5 1.7-1.7-.4-2.3-3.1-2.8-4.7-.9zm3.4.6c.3.5-.1 1-.9 1-.9 0-1.6-.5-1.6-1 0-.6.4-1 .9-1 .6 0 1.3.4 1.6 1zM766.5 184c-.3.5-.1 1 .4 1 .6 0 1.1-.5 1.1-1 0-.6-.2-1-.4-1-.3 0-.8.4-1.1 1zM777.1 184.9c-.6 1.1-.8 2.7-.5 3.5.7 1.8 3.9 2.1 5 .5.4-.8 0-.9-1.5-.4-1.2.4-2.1.2-2.1-.4 0-.6.9-1.1 2.1-1.1 1.4 0 1.9-.5 1.7-1.7-.5-2.5-3.5-2.8-4.7-.4zm3.4.1c.3.5-.1 1-1 1s-1.3-.5-1-1c.3-.6.8-1 1-1 .2 0 .7.4 1 1zM790.1 186.7c.1 2.1.3 3 .6 2 .5-2.1 2.3-2.3 2.3-.2 0 1.7 3.5 2 4.6.4.4-.8 0-.9-1.5-.4-1.8.5-2.1.2-2.1-2 0-2 .4-2.6 1.5-2.1.8.3 1.5.1 1.5-.4 0-1.6-2.2-1.2-4.3.7-1.1 1-1.7 1.3-1.4.6.4-.6.3-1.4-.3-1.8-.6-.4-1 .8-.9 3.2zM802.1 184.4c-2.7 3.3 1.4 7.6 4.3 4.6.8-.9.6-1.1-1.1-.5-1.4.4-2.3.2-2.3-.4 0-.6.9-1.1 2.1-1.1 1.4 0 1.9-.5 1.7-1.7-.4-2.3-3.1-2.8-4.7-.9zm2.9.6c0 .5-.5 1-1.1 1-.5 0-.7-.5-.4-1 .3-.6.8-1 1.1-1 .2 0 .4.4.4 1zM.1 188.6c0 1.1.3 1.4.6.6.3-.7.2-1.6-.1-1.9-.3-.4-.6.2-.5 1.3zM129.1 188.6c0 1.1.3 1.4.6.6.3-.7.2-1.6-.1-1.9-.3-.4-.6.2-.5 1.3zM766.5 189c-.3.5-.1 1 .4 1 .6 0 1.1-.5 1.1-1 0-.6-.2-1-.4-1-.3 0-.8.4-1.1 1zM149.1 190.6c0 1.1.3 1.4.6.6.3-.7.2-1.6-.1-1.9-.3-.4-.6.2-.5 1.3zM.1 194.6c0 1.1.3 1.4.6.6.3-.7.2-1.6-.1-1.9-.3-.4-.6.2-.5 1.3zM129.1 194.6c0 1.1.3 1.4.6.6.3-.7.2-1.6-.1-1.9-.3-.4-.6.2-.5 1.3zM149.1 196.6c0 1.1.3 1.4.6.6.3-.7.2-1.6-.1-1.9-.3-.4-.6.2-.5 1.3zM.1 200.6c0 1.1.3 1.4.6.6.3-.7.2-1.6-.1-1.9-.3-.4-.6.2-.5 1.3zM129.1 200.6c0 1.1.3 1.4.6.6.3-.7.2-1.6-.1-1.9-.3-.4-.6.2-.5 1.3zM229.1 201.6c0 1.1.3 1.4.6.6.3-.7.2-1.6-.1-1.9-.3-.4-.6.2-.5 1.3zM149.1 202.6c0 1.1.3 1.4.6.6.3-.7.2-1.6-.1-1.9-.3-.4-.6.2-.5 1.3zM.1 206.6c0 1.1.3 1.4.6.6.3-.7.2-1.6-.1-1.9-.3-.4-.6.2-.5 1.3zM129.1 206.6c0 1.1.3 1.4.6.6.3-.7.2-1.6-.1-1.9-.3-.4-.6.2-.5 1.3zM229.1 206.6c0 1.1.3 1.4.6.6.3-.7.2-1.6-.1-1.9-.3-.4-.6.2-.5 1.3zM39 211.5c0 4.6 0 4.6 3.3 4.3 3-.3 3.2-.5 3.2-4.3s-.2-4-3.2-4.3c-3.3-.3-3.3-.3-3.3 4.3zm4.7-1.9c-.3.3-1.2.4-1.9.1-.8-.3-.5-.6.6-.6 1.1-.1 1.7.2 1.3.5zm.3 3.4c0 .5-.7 1-1.5 1s-1.5-.5-1.5-1c0-.6.7-1 1.5-1s1.5.4 1.5 1zM47.2 211.5c-.2 2.6.2 4.5.8 4.5.5 0 1-2 1-4.5 0-5.8-1.4-5.8-1.8 0zM71 211.5c0 2.5.5 4.5 1 4.5.6 0 1-.5 1-1.2 0-.9.3-.9 1.2 0 1.5 1.5 4.8 1.6 4.8.1 0-.6-.7-.9-1.5-.5-.8.3-1.5.1-1.5-.4 0-.6.9-1 2-1 2.3 0 2.6-1 .8-2.8-1.9-1.9-3.8-1.4-4.8 1-.8 2.1-.9 2-.9-1-.1-5-2.1-3.8-2.1 1.3zM149.1 208.6c0 1.1.3 1.4.6.6.3-.7.2-1.6-.1-1.9-.3-.4-.6.2-.5 1.3zM51.1 210.9c-.6 1.1-.8 2.7-.5 3.6.8 2 4.5 1.6 5.2-.5.4-1.3.3-1.3-1-.2-1.1.9-1.8 1-2.3.2-.9-1.5.5-3.2 2.2-2.6.9.4 1.3.1 1.1-.6-.7-2.1-3.6-2.1-4.7.1zM57.6 211.7c.4 1.6.7 3.8.7 5-.1 1.3.4 2 .9 1.7 1.1-.7 3.8-6.7 3.8-8.4 0-1.8-2-1.1-2 .7-.1 1.7-.1 1.7-1.4 0-2-2.5-2.9-2.1-2 1zM64.4 210.4c-1 2.6.1 5.1 2.4 5.4 1.2.2 2.2-.1 2.2-.7s-.7-1.1-1.5-1.1-1.5-.7-1.5-1.6c0-1.1.5-1.4 1.6-1 1 .4 1.4.1 1.2-.6-.7-1.9-3.7-2.2-4.4-.4zM.1 212.6c0 1.1.3 1.4.6.6.3-.7.2-1.6-.1-1.9-.3-.4-.6.2-.5 1.3zM129.1 212.6c0 1.1.3 1.4.6.6.3-.7.2-1.6-.1-1.9-.3-.4-.6.2-.5 1.3zM149.1 214.6c0 1.1.3 1.4.6.6.3-.7.2-1.6-.1-1.9-.3-.4-.6.2-.5 1.3zM.1 218.6c0 1.1.3 1.4.6.6.3-.7.2-1.6-.1-1.9-.3-.4-.6.2-.5 1.3zM129.1 218.6c0 1.1.3 1.4.6.6.3-.7.2-1.6-.1-1.9-.3-.4-.6.2-.5 1.3zM149.1 220.6c0 1.1.3 1.4.6.6.3-.7.2-1.6-.1-1.9-.3-.4-.6.2-.5 1.3zM113.8 221.7c.7.3 1.6.2 1.9-.1.4-.3-.2-.6-1.3-.5-1.1 0-1.4.3-.6.6zM119.8 221.7c.7.3 1.6.2 1.9-.1.4-.3-.2-.6-1.3-.5-1.1 0-1.4.3-.6.6zM125.8 221.7c.7.3 1.6.2 1.9-.1.4-.3-.2-.6-1.3-.5-1.1 0-1.4.3-.6.6zM131.8 221.7c.7.3 1.6.2 1.9-.1.4-.3-.2-.6-1.3-.5-1.1 0-1.4.3-.6.6zM137.8 221.7c.7.3 1.6.2 1.9-.1.4-.3-.2-.6-1.3-.5-1.1 0-1.4.3-.6.6zM143.8 221.7c.7.3 1.6.2 1.9-.1.4-.3-.2-.6-1.3-.5-1.1 0-1.4.3-.6.6zM.1 224.6c0 1.1.3 1.4.6.6.3-.7.2-1.6-.1-1.9-.3-.4-.6.2-.5 1.3zM129.1 224.6c0 1.1.3 1.4.6.6.3-.7.2-1.6-.1-1.9-.3-.4-.6.2-.5 1.3zM229.1 225.6c0 1.1.3 1.4.6.6.3-.7.2-1.6-.1-1.9-.3-.4-.6.2-.5 1.3zM.1 230.6c0 1.1.3 1.4.6.6.3-.7.2-1.6-.1-1.9-.3-.4-.6.2-.5 1.3zM129.1 230.6c0 1.1.3 1.4.6.6.3-.7.2-1.6-.1-1.9-.3-.4-.6.2-.5 1.3zM229.1 230.6c0 1.1.3 1.4.6.6.3-.7.2-1.6-.1-1.9-.3-.4-.6.2-.5 1.3zM.1 236.6c0 1.1.3 1.4.6.6.3-.7.2-1.6-.1-1.9-.3-.4-.6.2-.5 1.3zM129.1 236.6c0 1.1.3 1.4.6.6.3-.7.2-1.6-.1-1.9-.3-.4-.6.2-.5 1.3zM.1 242.6c0 1.1.3 1.4.6.6.3-.7.2-1.6-.1-1.9-.3-.4-.6.2-.5 1.3zM56.5 242.1c-1 1.5-.9 7.9.2 9 .4.4.8-1.7.8-4.7 0-5.8 0-6-1-4.3zM59.6 241.9c.3.7.6 3.4.6 6 0 3.4.2 4.1.8 2.6 1.3-3.1 1.1-6-.6-8.1-.8-1-1.2-1.3-.8-.5zM83.1 245.5c.2 2.5.6 4.5 1.1 4.5.4 0 .8-2 .8-4.5s-.5-4.5-1-4.5c-.7 0-1 1.9-.9 4.5zM86.3 245.5c0 2.7.2 3.8.4 2.2.2-1.5.2-3.7 0-5-.2-1.2-.4 0-.4 2.8zM129.1 242.6c0 1.1.3 1.4.6.6.3-.7.2-1.6-.1-1.9-.3-.4-.6.2-.5 1.3zM18.1 244.2c0 1-.7 1.8-1.3 1.8-.9 0-1 .3-.2.8.6.4 1.3 1.2 1.5 1.7.2.6 1.1.3 2.2-.7 1.3-1.4 1.4-1.8.3-1.8-.8 0-1.7-.8-1.9-1.8-.4-1.6-.5-1.6-.6 0zM26.1 247l.1 3.5.7-3c.7-3.4 2.6-3.2 2.6.2-.1 1.3.3 2.3.7 2.3.4 0 .8-1.1.8-2.4 0-1.4.5-2.8 1-3.1.6-.4 1 .7 1 2.4 0 3.3 1.6 4.2 2.3 1.3.4-1.6.5-1.6.6 0 .1 2.5 3.8 2.3 5.1-.3.9-1.5.8-2.4-.1-3.5-1.5-1.9-3.8-1.8-4.6.2-.6 1.5-.7 1.5-1.7.2-.7-1-2.6-1.5-4.9-1.5-3.6.1-3.7.2-3.6 3.7zm13.9.1c0 2-1.5 2.6-2.5.9-.9-1.5.3-4.3 1.5-3.5.5.3 1 1.5 1 2.6zM42 243.4c0 1.4 2.4 6.6 3 6.6 1 0 3.2-6.1 2.5-6.9-.3-.3-.8.5-1.2 1.7-.7 2.7-2.3 2.9-2.3.2 0-1.1-.4-2-1-2-.5 0-1 .2-1 .4zM49.1 244.4c-.7.8-1 2.4-.6 3.6.7 2.1 3.9 2.7 5.1.9.4-.8 0-.9-1.5-.4-1.2.4-2.1.2-2.1-.4 0-.6.9-1.1 2.1-1.1 1.4 0 1.9-.5 1.7-1.7-.4-2.3-3.1-2.8-4.7-.9zm3.6 1.2c-.3.3-1.2.4-1.9.1-.8-.3-.5-.6.6-.6 1.1-.1 1.7.2 1.3.5zM70.1 246.7c.1 3.7.2 3.7.8.8.3-1.7 1.1-3 1.6-3s1.3 1.3 1.6 3c.6 2.9.7 2.9.8-.8.1-3.3-.2-3.7-2.4-3.7-2.2 0-2.5.4-2.4 3.7zM77.2 246.2c-.2 3.4 0 3.8 2.3 3.8 2.2 0 2.5-.4 2.4-3.8-.1-3.5-.2-3.5-.8-.8-.9 4.2-2.9 4.4-3.4.4l-.4-3.3-.1 3.7zM.1 248.6c0 1.1.3 1.4.6.6.3-.7.2-1.6-.1-1.9-.3-.4-.6.2-.5 1.3zM129.1 248.6c0 1.1.3 1.4.6.6.3-.7.2-1.6-.1-1.9-.3-.4-.6.2-.5 1.3zM229.1 249.6c0 1.1.3 1.4.6.6.3-.7.2-1.6-.1-1.9-.3-.4-.6.2-.5 1.3zM.1 254.6c0 1.1.3 1.4.6.6.3-.7.2-1.6-.1-1.9-.3-.4-.6.2-.5 1.3zM129.1 254.6c0 1.1.3 1.4.6.6.3-.7.2-1.6-.1-1.9-.3-.4-.6.2-.5 1.3zM229.1 254.6c0 1.1.3 1.4.6.6.3-.7.2-1.6-.1-1.9-.3-.4-.6.2-.5 1.3zM.1 260.6c0 1.1.3 1.4.6.6.3-.7.2-1.6-.1-1.9-.3-.4-.6.2-.5 1.3zM129.1 260.6c0 1.1.3 1.4.6.6.3-.7.2-1.6-.1-1.9-.3-.4-.6.2-.5 1.3zM.1 266.6c0 1.1.3 1.4.6.6.3-.7.2-1.6-.1-1.9-.3-.4-.6.2-.5 1.3zM129.1 266.6c0 1.1.3 1.4.6.6.3-.7.2-1.6-.1-1.9-.3-.4-.6.2-.5 1.3zM.1 272.6c0 1.1.3 1.4.6.6.3-.7.2-1.6-.1-1.9-.3-.4-.6.2-.5 1.3zM129.1 272.6c0 1.1.3 1.4.6.6.3-.7.2-1.6-.1-1.9-.3-.4-.6.2-.5 1.3zM229.1 273.6c0 1.1.3 1.4.6.6.3-.7.2-1.6-.1-1.9-.3-.4-.6.2-.5 1.3zM.1 278.6c0 1.1.3 1.4.6.6.3-.7.2-1.6-.1-1.9-.3-.4-.6.2-.5 1.3zM44 281.5c0 2.5.5 4.5 1 4.5.6 0 1-.7 1-1.5s.4-1.5.9-1.5 1.7-.7 2.6-1.6c2-2 .3-4.4-3.1-4.4-2.2 0-2.4.4-2.4 4.5zm4.5-1.5c-.3.5-1 1-1.6 1-.5 0-.9-.5-.9-1 0-.6.7-1 1.6-1 .8 0 1.2.4.9 1zM52 281.5c0 2.5.5 4.5 1 4.5.6 0 1-2 1-4.5s-.4-4.5-1-4.5c-.5 0-1 2-1 4.5zM129.1 278.6c0 1.1.3 1.4.6.6.3-.7.2-1.6-.1-1.9-.3-.4-.6.2-.5 1.3zM229.1 278.6c0 1.1.3 1.4.6.6.3-.7.2-1.6-.1-1.9-.3-.4-.6.2-.5 1.3zM55.6 279.9c-.4.5.2 1.2 1.1 1.4 1.7.4 1.7.5.1.6-1.1.1-1.8.9-1.8 2.1 0 1.5.7 2 2.6 2 2.3 0 2.5-.3 2.2-3.2-.3-3.2-2.9-5-4.2-2.9zM62 282.7c0 1.8.5 3.3 1.1 3.3.5 0 .9-1 .7-2.2-.2-1.1.3-2.3 1-2.5.7-.3 1.2.5 1.2 2.1 0 1.4.5 2.6 1 2.6 1.2 0 1.3-4 .2-5.7-.4-.7-1.8-1.1-3-1-1.8.1-2.2.7-2.2 3.4zM69.4 280.4c-1 2.6.1 5.1 2.4 5.4 1.2.2 2.2-.2 2.2-.8 0-.7-.7-1-1.5-.6-.8.3-1.5.1-1.5-.4 0-.6.9-1 2-1 1.8 0 1.9-.3 1-2-1.2-2.3-3.8-2.6-4.6-.6zM.1 284.6c0 1.1.3 1.4.6.6.3-.7.2-1.6-.1-1.9-.3-.4-.6.2-.5 1.3zM129.1 284.6c0 1.1.3 1.4.6.6.3-.7.2-1.6-.1-1.9-.3-.4-.6.2-.5 1.3zM.1 290.6c0 1.1.3 1.4.6.6.3-.7.2-1.6-.1-1.9-.3-.4-.6.2-.5 1.3zM129.1 290.6c0 1.1.3 1.4.6.6.3-.7.2-1.6-.1-1.9-.3-.4-.6.2-.5 1.3zM110.8 293.7c.6.2 1.8.2 2.5 0 .6-.3.1-.5-1.3-.5-1.4 0-1.9.2-1.2.5zM116.8 293.7c.6.2 1.8.2 2.5 0 .6-.3.1-.5-1.3-.5-1.4 0-1.9.2-1.2.5zM135.8 293.7c.7.3 1.6.2 1.9-.1.4-.3-.2-.6-1.3-.5-1.1 0-1.4.3-.6.6zM140.8 293.7c.6.2 1.8.2 2.5 0 .6-.3.1-.5-1.3-.5-1.4 0-1.9.2-1.2.5zM152.8 293.7c.6.2 1.8.2 2.5 0 .6-.3.1-.5-1.3-.5-1.4 0-1.9.2-1.2.5zM158.8 293.7c.6.2 1.8.2 2.5 0 .6-.3.1-.5-1.3-.5-1.4 0-1.9.2-1.2.5zM164.8 293.7c.6.2 1.8.2 2.5 0 .6-.3.1-.5-1.3-.5-1.4 0-1.9.2-1.2.5zM176.8 293.7c.6.2 1.8.2 2.5 0 .6-.3.1-.5-1.3-.5-1.4 0-1.9.2-1.2.5zM182.8 293.7c.6.2 1.8.2 2.5 0 .6-.3.1-.5-1.3-.5-1.4 0-1.9.2-1.2.5zM188.8 293.7c.6.2 1.8.2 2.5 0 .6-.3.1-.5-1.3-.5-1.4 0-1.9.2-1.2.5zM200.8 293.7c.6.2 1.8.2 2.5 0 .6-.3.1-.5-1.3-.5-1.4 0-1.9.2-1.2.5zM206.8 293.7c.6.2 1.8.2 2.5 0 .6-.3.1-.5-1.3-.5-1.4 0-1.9.2-1.2.5zM212.8 293.7c.6.2 1.8.2 2.5 0 .6-.3.1-.5-1.3-.5-1.4 0-1.9.2-1.2.5zM224.8 293.7c.7.3 1.6.2 1.9-.1.4-.3-.2-.6-1.3-.5-1.1 0-1.4.3-.6.6zM.1 296.6c0 1.1.3 1.4.6.6.3-.7.2-1.6-.1-1.9-.3-.4-.6.2-.5 1.3zM129.1 296.6c0 1.1.3 1.4.6.6.3-.7.2-1.6-.1-1.9-.3-.4-.6.2-.5 1.3zM.1 302.6c0 1.1.3 1.4.6.6.3-.7.2-1.6-.1-1.9-.3-.4-.6.2-.5 1.3zM129.1 302.6c0 1.1.3 1.4.6.6.3-.7.2-1.6-.1-1.9-.3-.4-.6.2-.5 1.3zM.1 308.6c0 1.1.3 1.4.6.6.3-.7.2-1.6-.1-1.9-.3-.4-.6.2-.5 1.3zM129.1 308.6c0 1.1.3 1.4.6.6.3-.7.2-1.6-.1-1.9-.3-.4-.6.2-.5 1.3zM56.7 311.7c-.9.9-.9 9.1.1 9.6.4.3.7-1.9.7-4.9 0-3 0-5.4-.1-5.4 0 0-.4.3-.7.7zM60 313.8c.5 2 .5 4.3 0 5.8-.5 1.3-.6 2.4-.1 2.4.9 0 2.1-3.4 2.1-6.1 0-.8-.7-2.4-1.5-3.5-1.3-1.7-1.4-1.6-.5 1.4zM83.3 315c-.1 2.1.2 4.2.7 4.5.6.4 1-1.2 1-3.9 0-5.6-1.4-6.1-1.7-.6zM86.3 315.5c0 2.7.2 3.8.4 2.2.2-1.5.2-3.7 0-5-.2-1.2-.4 0-.4 2.8zM.1 314.6c0 1.1.3 1.4.6.6.3-.7.2-1.6-.1-1.9-.3-.4-.6.2-.5 1.3zM18.1 314.2c0 1-.7 1.8-1.3 1.8-.9 0-1 .3-.2.8.6.4 1.4 1.4 1.7 2.2.4 1.2.6 1.2.6-.2.1-.9.9-1.9 1.9-2.1 1.5-.4 1.5-.5 0-.6-.9 0-1.9-.9-2.1-1.9-.4-1.6-.5-1.6-.6 0zM26.1 316.8c.1 3.6.2 3.6.8.7.3-1.7 1.1-3 1.6-3s1.3 1.3 1.6 3c.7 3 .7 3 .8.3.1-3.8 2.1-4.6 2.1-.9 0 1.7.4 3.1 1 3.1.5 0 .8-1 .6-2.3-.3-1.2-.5-2.7-.5-3.3-.1-.7-1.9-1.2-4.1-1.2-4-.1-4-.1-3.9 3.6zM36.4 314.4c-1 2.6 0 5.1 2.1 5.1 1.6 0 2-.7 2-3 0-3.3-3-4.9-4.1-2.1zm3.6 2.7c0 1-.7 1.9-1.5 1.9-1.5 0-2.1-3.1-.9-4.3 1.1-1 2.4.3 2.4 2.4zM42 313.3c0 1.4 2.3 6.7 2.9 6.7.4 0 1.2-1.6 1.8-3.5.6-1.9.7-3.3.2-2.9-.5.3-.9 1.2-.9 2s-.4 1.4-1 1.4c-.5 0-1-.6-1-1.4 0-.8-.4-1.8-1-2.1-.5-.3-1-.4-1-.2zM49.1 314.9c-.6 1.1-.8 2.7-.5 3.5.7 1.8 3.9 2.1 5 .5.4-.8 0-.9-1.5-.4-1.2.4-2.1.2-2.1-.4 0-.6.9-1.1 2.1-1.1 1.4 0 1.9-.5 1.7-1.7-.5-2.5-3.5-2.8-4.7-.4zm3.4.1c.3.5-.1 1-1 1s-1.3-.5-1-1c.3-.6.8-1 1-1 .2 0 .7.4 1 1zM70.1 316.7c.1 3.7.2 3.7.8.8.3-1.7 1.1-3 1.6-3s1.3 1.3 1.6 3c.6 2.9.7 2.9.8-.8.1-3.3-.2-3.7-2.4-3.7-2.2 0-2.5.4-2.4 3.7zM77.2 316.2c-.2 3.4 0 3.8 2.3 3.8 2.2 0 2.5-.4 2.4-3.8l-.1-3.7-.9 3.2c-.5 1.8-1.4 3.3-1.9 3.3s-1.1-1.5-1.3-3.3c-.4-3.1-.4-3.1-.5.5zM129.1 314.6c0 1.1.3 1.4.6.6.3-.7.2-1.6-.1-1.9-.3-.4-.6.2-.5 1.3zM.1 320.6c0 1.1.3 1.4.6.6.3-.7.2-1.6-.1-1.9-.3-.4-.6.2-.5 1.3zM129.1 320.6c0 1.1.3 1.4.6.6.3-.7.2-1.6-.1-1.9-.3-.4-.6.2-.5 1.3zM.1 326.6c0 1.1.3 1.4.6.6.3-.7.2-1.6-.1-1.9-.3-.4-.6.2-.5 1.3zM129.1 326.6c0 1.1.3 1.4.6.6.3-.7.2-1.6-.1-1.9-.3-.4-.6.2-.5 1.3zM2 338c0 .5.5 1 1.1 1 .5 0 .7-.5.4-1-.3-.6-.8-1-1.1-1-.2 0-.4.4-.4 1zM126.7 337.7c-.4.3-.7 1.1-.7 1.7 0 .6.5.5 1.2-.2.6-.6.9-1.4.7-1.7-.3-.3-.9-.2-1.2.2zM21.8 348.7c.7.3 1.6.2 1.9-.1.4-.3-.2-.6-1.3-.5-1.1 0-1.4.3-.6.6zM27.8 348.7c.7.3 1.6.2 1.9-.1.4-.3-.2-.6-1.3-.5-1.1 0-1.4.3-.6.6zM33.8 348.7c.7.3 1.6.2 1.9-.1.4-.3-.2-.6-1.3-.5-1.1 0-1.4.3-.6.6zM39.8 348.7c.7.3 1.6.2 1.9-.1.4-.3-.2-.6-1.3-.5-1.1 0-1.4.3-.6.6zM45.8 348.7c.7.3 1.6.2 1.9-.1.4-.3-.2-.6-1.3-.5-1.1 0-1.4.3-.6.6zM51.8 348.7c.7.3 1.6.2 1.9-.1.4-.3-.2-.6-1.3-.5-1.1 0-1.4.3-.6.6zM57.8 348.7c.7.3 1.6.2 1.9-.1.4-.3-.2-.6-1.3-.5-1.1 0-1.4.3-.6.6zM63.8 348.7c.7.3 1.6.2 1.9-.1.4-.3-.2-.6-1.3-.5-1.1 0-1.4.3-.6.6zM69.8 348.7c.7.3 1.6.2 1.9-.1.4-.3-.2-.6-1.3-.5-1.1 0-1.4.3-.6.6zM75.8 348.7c.7.3 1.6.2 1.9-.1.4-.3-.2-.6-1.3-.5-1.1 0-1.4.3-.6.6zM81.8 348.7c.7.3 1.6.2 1.9-.1.4-.3-.2-.6-1.3-.5-1.1 0-1.4.3-.6.6zM87.8 348.7c.7.3 1.6.2 1.9-.1.4-.3-.2-.6-1.3-.5-1.1 0-1.4.3-.6.6zM93.8 348.7c.7.3 1.6.2 1.9-.1.4-.3-.2-.6-1.3-.5-1.1 0-1.4.3-.6.6zM99.8 348.7c.7.3 1.6.2 1.9-.1.4-.3-.2-.6-1.3-.5-1.1 0-1.4.3-.6.6zM105.8 348.7c.7.3 1.6.2 1.9-.1.4-.3-.2-.6-1.3-.5-1.1 0-1.4.3-.6.6z"/></svg>